ISO-10303-21;
HEADER;
/* Generated by software containing ST-Developer
 * from STEP Tools, Inc. (www.steptools.com) 
 */

FILE_DESCRIPTION(
/* description */ (''),
/* implementation_level */ '2;1');

FILE_NAME(
/* name */ 'base plate.step',
/* time_stamp */ '2026-01-30T16:09:45+05:30',
/* author */ (''),
/* organization */ (''),
/* preprocessor_version */ 'ST-DEVELOPER v20.1',
/* originating_system */ 'Autodesk Translation Framework v14.24.0.0',
/* authorisation */ '');

FILE_SCHEMA (('AP203_CONFIGURATION_CONTROLLED_3D_DESIGN_OF_MECHANICAL_PARTS_AND_ASSEMBLIES_MIM_LF { 1 0 10303 203 3 1 4 }',
'AUTOMOTIVE_DESIGN { 1 0 10303 214 3 1 1 }'));
ENDSEC;

DATA;
#10=MECHANICAL_DESIGN_GEOMETRIC_PRESENTATION_REPRESENTATION('',(#13),#422);
#11=SHAPE_REPRESENTATION_RELATIONSHIP('SRR','None',#429,#12);
#12=ADVANCED_BREP_SHAPE_REPRESENTATION('',(#14),#421);
#13=STYLED_ITEM('',(#439),#14);
#14=MANIFOLD_SOLID_BREP('Body1',#234);
#15=LINE('',#372,#24);
#16=LINE('',#378,#25);
#17=LINE('',#385,#26);
#18=LINE('',#392,#27);
#19=LINE('',#399,#28);
#20=LINE('',#404,#29);
#21=LINE('',#414,#30);
#22=LINE('',#416,#31);
#23=LINE('',#418,#32);
#24=VECTOR('',#297,1.5);
#25=VECTOR('',#304,1.5);
#26=VECTOR('',#313,1.5);
#27=VECTOR('',#322,1.5);
#28=VECTOR('',#331,1.5);
#29=VECTOR('',#338,30.);
#30=VECTOR('',#351,1.5);
#31=VECTOR('',#354,1.5);
#32=VECTOR('',#357,1.5);
#33=CYLINDRICAL_SURFACE('',#254,1.2645);
#34=CYLINDRICAL_SURFACE('',#256,1.5);
#35=CYLINDRICAL_SURFACE('',#260,1.2645);
#36=CYLINDRICAL_SURFACE('',#264,1.2645);
#37=CYLINDRICAL_SURFACE('',#268,1.5);
#38=CYLINDRICAL_SURFACE('',#272,30.);
#39=CYLINDRICAL_SURFACE('',#278,1.2645);
#40=CYLINDRICAL_SURFACE('',#279,1.2645);
#41=CYLINDRICAL_SURFACE('',#280,1.2645);
#42=FACE_BOUND('',#70,.T.);
#43=FACE_BOUND('',#71,.T.);
#44=FACE_BOUND('',#72,.T.);
#45=FACE_BOUND('',#73,.T.);
#46=FACE_BOUND('',#85,.T.);
#47=FACE_BOUND('',#86,.T.);
#48=FACE_BOUND('',#87,.T.);
#49=FACE_BOUND('',#88,.T.);
#50=FACE_BOUND('',#89,.T.);
#51=FACE_BOUND('',#90,.T.);
#52=FACE_BOUND('',#91,.T.);
#53=FACE_BOUND('',#92,.T.);
#54=FACE_OUTER_BOUND('',#69,.T.);
#55=FACE_OUTER_BOUND('',#74,.T.);
#56=FACE_OUTER_BOUND('',#75,.T.);
#57=FACE_OUTER_BOUND('',#76,.T.);
#58=FACE_OUTER_BOUND('',#77,.T.);
#59=FACE_OUTER_BOUND('',#78,.T.);
#60=FACE_OUTER_BOUND('',#79,.T.);
#61=FACE_OUTER_BOUND('',#80,.T.);
#62=FACE_OUTER_BOUND('',#81,.T.);
#63=FACE_OUTER_BOUND('',#82,.T.);
#64=FACE_OUTER_BOUND('',#83,.T.);
#65=FACE_OUTER_BOUND('',#84,.T.);
#66=FACE_OUTER_BOUND('',#93,.T.);
#67=FACE_OUTER_BOUND('',#94,.T.);
#68=FACE_OUTER_BOUND('',#95,.T.);
#69=EDGE_LOOP('',(#159));
#70=EDGE_LOOP('',(#160));
#71=EDGE_LOOP('',(#161));
#72=EDGE_LOOP('',(#162));
#73=EDGE_LOOP('',(#163));
#74=EDGE_LOOP('',(#164,#165,#166,#167));
#75=EDGE_LOOP('',(#168,#169,#170,#171));
#76=EDGE_LOOP('',(#172));
#77=EDGE_LOOP('',(#173,#174,#175,#176));
#78=EDGE_LOOP('',(#177));
#79=EDGE_LOOP('',(#178,#179,#180,#181));
#80=EDGE_LOOP('',(#182));
#81=EDGE_LOOP('',(#183,#184,#185,#186));
#82=EDGE_LOOP('',(#187));
#83=EDGE_LOOP('',(#188,#189,#190,#191));
#84=EDGE_LOOP('',(#192));
#85=EDGE_LOOP('',(#193));
#86=EDGE_LOOP('',(#194));
#87=EDGE_LOOP('',(#195));
#88=EDGE_LOOP('',(#196));
#89=EDGE_LOOP('',(#197));
#90=EDGE_LOOP('',(#198));
#91=EDGE_LOOP('',(#199));
#92=EDGE_LOOP('',(#200));
#93=EDGE_LOOP('',(#201,#202,#203,#204));
#94=EDGE_LOOP('',(#205,#206,#207,#208));
#95=EDGE_LOOP('',(#209,#210,#211,#212));
#96=CIRCLE('',#249,30.);
#97=CIRCLE('',#250,1.2645);
#98=CIRCLE('',#251,1.2645);
#99=CIRCLE('',#252,1.2645);
#100=CIRCLE('',#253,1.2645);
#101=CIRCLE('',#255,1.2645);
#102=CIRCLE('',#257,1.5);
#103=CIRCLE('',#258,1.5);
#104=CIRCLE('',#261,1.2645);
#105=CIRCLE('',#262,1.2645);
#106=CIRCLE('',#265,1.2645);
#107=CIRCLE('',#266,1.2645);
#108=CIRCLE('',#269,1.5);
#109=CIRCLE('',#270,1.5);
#110=CIRCLE('',#273,30.);
#111=CIRCLE('',#275,1.2645);
#112=CIRCLE('',#276,1.2645);
#113=CIRCLE('',#277,1.2645);
#114=VERTEX_POINT('',#360);
#115=VERTEX_POINT('',#362);
#116=VERTEX_POINT('',#364);
#117=VERTEX_POINT('',#366);
#118=VERTEX_POINT('',#368);
#119=VERTEX_POINT('',#371);
#120=VERTEX_POINT('',#375);
#121=VERTEX_POINT('',#377);
#122=VERTEX_POINT('',#382);
#123=VERTEX_POINT('',#384);
#124=VERTEX_POINT('',#389);
#125=VERTEX_POINT('',#391);
#126=VERTEX_POINT('',#396);
#127=VERTEX_POINT('',#398);
#128=VERTEX_POINT('',#403);
#129=VERTEX_POINT('',#407);
#130=VERTEX_POINT('',#409);
#131=VERTEX_POINT('',#411);
#132=EDGE_CURVE('',#114,#114,#96,.T.);
#133=EDGE_CURVE('',#115,#115,#97,.T.);
#134=EDGE_CURVE('',#116,#116,#98,.T.);
#135=EDGE_CURVE('',#117,#117,#99,.T.);
#136=EDGE_CURVE('',#118,#118,#100,.T.);
#137=EDGE_CURVE('',#118,#119,#15,.T.);
#138=EDGE_CURVE('',#119,#119,#101,.T.);
#139=EDGE_CURVE('',#120,#120,#102,.T.);
#140=EDGE_CURVE('',#120,#121,#16,.T.);
#141=EDGE_CURVE('',#121,#121,#103,.T.);
#142=EDGE_CURVE('',#122,#122,#104,.T.);
#143=EDGE_CURVE('',#122,#123,#17,.T.);
#144=EDGE_CURVE('',#123,#123,#105,.T.);
#145=EDGE_CURVE('',#124,#124,#106,.T.);
#146=EDGE_CURVE('',#124,#125,#18,.T.);
#147=EDGE_CURVE('',#125,#125,#107,.T.);
#148=EDGE_CURVE('',#126,#126,#108,.T.);
#149=EDGE_CURVE('',#126,#127,#19,.T.);
#150=EDGE_CURVE('',#127,#127,#109,.T.);
#151=EDGE_CURVE('',#114,#128,#20,.T.);
#152=EDGE_CURVE('',#128,#128,#110,.T.);
#153=EDGE_CURVE('',#129,#129,#111,.T.);
#154=EDGE_CURVE('',#130,#130,#112,.T.);
#155=EDGE_CURVE('',#131,#131,#113,.T.);
#156=EDGE_CURVE('',#117,#131,#21,.T.);
#157=EDGE_CURVE('',#116,#130,#22,.T.);
#158=EDGE_CURVE('',#115,#129,#23,.T.);
#159=ORIENTED_EDGE('',*,*,#132,.F.);
#160=ORIENTED_EDGE('',*,*,#133,.F.);
#161=ORIENTED_EDGE('',*,*,#134,.F.);
#162=ORIENTED_EDGE('',*,*,#135,.F.);
#163=ORIENTED_EDGE('',*,*,#136,.F.);
#164=ORIENTED_EDGE('',*,*,#136,.T.);
#165=ORIENTED_EDGE('',*,*,#137,.T.);
#166=ORIENTED_EDGE('',*,*,#138,.F.);
#167=ORIENTED_EDGE('',*,*,#137,.F.);
#168=ORIENTED_EDGE('',*,*,#139,.F.);
#169=ORIENTED_EDGE('',*,*,#140,.T.);
#170=ORIENTED_EDGE('',*,*,#141,.T.);
#171=ORIENTED_EDGE('',*,*,#140,.F.);
#172=ORIENTED_EDGE('',*,*,#141,.F.);
#173=ORIENTED_EDGE('',*,*,#142,.F.);
#174=ORIENTED_EDGE('',*,*,#143,.T.);
#175=ORIENTED_EDGE('',*,*,#144,.T.);
#176=ORIENTED_EDGE('',*,*,#143,.F.);
#177=ORIENTED_EDGE('',*,*,#144,.F.);
#178=ORIENTED_EDGE('',*,*,#145,.F.);
#179=ORIENTED_EDGE('',*,*,#146,.T.);
#180=ORIENTED_EDGE('',*,*,#147,.T.);
#181=ORIENTED_EDGE('',*,*,#146,.F.);
#182=ORIENTED_EDGE('',*,*,#147,.F.);
#183=ORIENTED_EDGE('',*,*,#148,.F.);
#184=ORIENTED_EDGE('',*,*,#149,.T.);
#185=ORIENTED_EDGE('',*,*,#150,.T.);
#186=ORIENTED_EDGE('',*,*,#149,.F.);
#187=ORIENTED_EDGE('',*,*,#150,.F.);
#188=ORIENTED_EDGE('',*,*,#132,.T.);
#189=ORIENTED_EDGE('',*,*,#151,.T.);
#190=ORIENTED_EDGE('',*,*,#152,.F.);
#191=ORIENTED_EDGE('',*,*,#151,.F.);
#192=ORIENTED_EDGE('',*,*,#152,.T.);
#193=ORIENTED_EDGE('',*,*,#153,.T.);
#194=ORIENTED_EDGE('',*,*,#154,.T.);
#195=ORIENTED_EDGE('',*,*,#155,.T.);
#196=ORIENTED_EDGE('',*,*,#138,.T.);
#197=ORIENTED_EDGE('',*,*,#139,.T.);
#198=ORIENTED_EDGE('',*,*,#142,.T.);
#199=ORIENTED_EDGE('',*,*,#145,.T.);
#200=ORIENTED_EDGE('',*,*,#148,.T.);
#201=ORIENTED_EDGE('',*,*,#135,.T.);
#202=ORIENTED_EDGE('',*,*,#156,.T.);
#203=ORIENTED_EDGE('',*,*,#155,.F.);
#204=ORIENTED_EDGE('',*,*,#156,.F.);
#205=ORIENTED_EDGE('',*,*,#134,.T.);
#206=ORIENTED_EDGE('',*,*,#157,.T.);
#207=ORIENTED_EDGE('',*,*,#154,.F.);
#208=ORIENTED_EDGE('',*,*,#157,.F.);
#209=ORIENTED_EDGE('',*,*,#133,.T.);
#210=ORIENTED_EDGE('',*,*,#158,.T.);
#211=ORIENTED_EDGE('',*,*,#153,.F.);
#212=ORIENTED_EDGE('',*,*,#158,.F.);
#213=PLANE('',#248);
#214=PLANE('',#259);
#215=PLANE('',#263);
#216=PLANE('',#267);
#217=PLANE('',#271);
#218=PLANE('',#274);
#219=ADVANCED_FACE('',(#54,#42,#43,#44,#45),#213,.F.);
#220=ADVANCED_FACE('',(#55),#33,.F.);
#221=ADVANCED_FACE('',(#56),#34,.F.);
#222=ADVANCED_FACE('',(#57),#214,.T.);
#223=ADVANCED_FACE('',(#58),#35,.F.);
#224=ADVANCED_FACE('',(#59),#215,.T.);
#225=ADVANCED_FACE('',(#60),#36,.F.);
#226=ADVANCED_FACE('',(#61),#216,.T.);
#227=ADVANCED_FACE('',(#62),#37,.F.);
#228=ADVANCED_FACE('',(#63),#217,.T.);
#229=ADVANCED_FACE('',(#64),#38,.T.);
#230=ADVANCED_FACE('',(#65,#46,#47,#48,#49,#50,#51,#52,#53),#218,.T.);
#231=ADVANCED_FACE('',(#66),#39,.F.);
#232=ADVANCED_FACE('',(#67),#40,.F.);
#233=ADVANCED_FACE('',(#68),#41,.F.);
#234=CLOSED_SHELL('',(#219,#220,#221,#222,#223,#224,#225,#226,#227,#228,
#229,#230,#231,#232,#233));
#235=DERIVED_UNIT_ELEMENT(#237,1.);
#236=DERIVED_UNIT_ELEMENT(#424,-3.);
#237=(
MASS_UNIT()
NAMED_UNIT(*)
SI_UNIT(.KILO.,.GRAM.)
);
#238=DERIVED_UNIT((#235,#236));
#239=MEASURE_REPRESENTATION_ITEM('density measure',
POSITIVE_RATIO_MEASURE(7850.),#238);
#240=PROPERTY_DEFINITION_REPRESENTATION(#245,#242);
#241=PROPERTY_DEFINITION_REPRESENTATION(#246,#243);
#242=REPRESENTATION('material name',(#244),#421);
#243=REPRESENTATION('density',(#239),#421);
#244=DESCRIPTIVE_REPRESENTATION_ITEM('Steel','Steel');
#245=PROPERTY_DEFINITION('material property','material name',#431);
#246=PROPERTY_DEFINITION('material property','density of part',#431);
#247=AXIS2_PLACEMENT_3D('',#358,#281,#282);
#248=AXIS2_PLACEMENT_3D('',#359,#283,#284);
#249=AXIS2_PLACEMENT_3D('',#361,#285,#286);
#250=AXIS2_PLACEMENT_3D('',#363,#287,#288);
#251=AXIS2_PLACEMENT_3D('',#365,#289,#290);
#252=AXIS2_PLACEMENT_3D('',#367,#291,#292);
#253=AXIS2_PLACEMENT_3D('',#369,#293,#294);
#254=AXIS2_PLACEMENT_3D('',#370,#295,#296);
#255=AXIS2_PLACEMENT_3D('',#373,#298,#299);
#256=AXIS2_PLACEMENT_3D('',#374,#300,#301);
#257=AXIS2_PLACEMENT_3D('',#376,#302,#303);
#258=AXIS2_PLACEMENT_3D('',#379,#305,#306);
#259=AXIS2_PLACEMENT_3D('',#380,#307,#308);
#260=AXIS2_PLACEMENT_3D('',#381,#309,#310);
#261=AXIS2_PLACEMENT_3D('',#383,#311,#312);
#262=AXIS2_PLACEMENT_3D('',#386,#314,#315);
#263=AXIS2_PLACEMENT_3D('',#387,#316,#317);
#264=AXIS2_PLACEMENT_3D('',#388,#318,#319);
#265=AXIS2_PLACEMENT_3D('',#390,#320,#321);
#266=AXIS2_PLACEMENT_3D('',#393,#323,#324);
#267=AXIS2_PLACEMENT_3D('',#394,#325,#326);
#268=AXIS2_PLACEMENT_3D('',#395,#327,#328);
#269=AXIS2_PLACEMENT_3D('',#397,#329,#330);
#270=AXIS2_PLACEMENT_3D('',#400,#332,#333);
#271=AXIS2_PLACEMENT_3D('',#401,#334,#335);
#272=AXIS2_PLACEMENT_3D('',#402,#336,#337);
#273=AXIS2_PLACEMENT_3D('',#405,#339,#340);
#274=AXIS2_PLACEMENT_3D('',#406,#341,#342);
#275=AXIS2_PLACEMENT_3D('',#408,#343,#344);
#276=AXIS2_PLACEMENT_3D('',#410,#345,#346);
#277=AXIS2_PLACEMENT_3D('',#412,#347,#348);
#278=AXIS2_PLACEMENT_3D('',#413,#349,#350);
#279=AXIS2_PLACEMENT_3D('',#415,#352,#353);
#280=AXIS2_PLACEMENT_3D('',#417,#355,#356);
#281=DIRECTION('axis',(0.,0.,1.));
#282=DIRECTION('refdir',(1.,0.,0.));
#283=DIRECTION('center_axis',(1.,0.,0.));
#284=DIRECTION('ref_axis',(0.,1.,0.));
#285=DIRECTION('center_axis',(1.,0.,0.));
#286=DIRECTION('ref_axis',(0.,1.,0.));
#287=DIRECTION('center_axis',(-1.,0.,0.));
#288=DIRECTION('ref_axis',(0.,-1.83697019872103E-16,-1.));
#289=DIRECTION('center_axis',(-1.,0.,0.));
#290=DIRECTION('ref_axis',(0.,-1.,1.22464679914735E-16));
#291=DIRECTION('center_axis',(-1.,0.,0.));
#292=DIRECTION('ref_axis',(0.,6.12323399573677E-17,1.));
#293=DIRECTION('center_axis',(-1.,0.,0.));
#294=DIRECTION('ref_axis',(0.,1.,0.));
#295=DIRECTION('center_axis',(1.,0.,0.));
#296=DIRECTION('ref_axis',(0.,1.,0.));
#297=DIRECTION('',(1.,0.,0.));
#298=DIRECTION('center_axis',(-1.,0.,0.));
#299=DIRECTION('ref_axis',(0.,1.,0.));
#300=DIRECTION('center_axis',(-1.,0.,0.));
#301=DIRECTION('ref_axis',(0.,-1.83697019872103E-16,-1.));
#302=DIRECTION('center_axis',(-1.,0.,0.));
#303=DIRECTION('ref_axis',(0.,-1.83697019872103E-16,-1.));
#304=DIRECTION('',(-1.,0.,0.));
#305=DIRECTION('center_axis',(-1.,0.,0.));
#306=DIRECTION('ref_axis',(0.,-1.83697019872103E-16,-1.));
#307=DIRECTION('center_axis',(1.,0.,0.));
#308=DIRECTION('ref_axis',(0.,-1.83697019872103E-16,-1.));
#309=DIRECTION('center_axis',(-1.,0.,0.));
#310=DIRECTION('ref_axis',(0.,-1.,1.22464679914735E-16));
#311=DIRECTION('center_axis',(-1.,0.,0.));
#312=DIRECTION('ref_axis',(0.,-1.,1.22464679914735E-16));
#313=DIRECTION('',(-1.,0.,0.));
#314=DIRECTION('center_axis',(-1.,0.,0.));
#315=DIRECTION('ref_axis',(0.,-1.,1.22464679914735E-16));
#316=DIRECTION('center_axis',(1.,0.,0.));
#317=DIRECTION('ref_axis',(0.,-1.,1.22464679914735E-16));
#318=DIRECTION('center_axis',(-1.,0.,0.));
#319=DIRECTION('ref_axis',(0.,6.12323399573677E-17,1.));
#320=DIRECTION('center_axis',(-1.,0.,0.));
#321=DIRECTION('ref_axis',(0.,6.12323399573677E-17,1.));
#322=DIRECTION('',(-1.,0.,0.));
#323=DIRECTION('center_axis',(-1.,0.,0.));
#324=DIRECTION('ref_axis',(0.,6.12323399573677E-17,1.));
#325=DIRECTION('center_axis',(1.,0.,0.));
#326=DIRECTION('ref_axis',(0.,6.12323399573677E-17,1.));
#327=DIRECTION('center_axis',(-1.,0.,0.));
#328=DIRECTION('ref_axis',(0.,1.,0.));
#329=DIRECTION('center_axis',(-1.,0.,0.));
#330=DIRECTION('ref_axis',(0.,1.,0.));
#331=DIRECTION('',(-1.,0.,0.));
#332=DIRECTION('center_axis',(-1.,0.,0.));
#333=DIRECTION('ref_axis',(0.,1.,0.));
#334=DIRECTION('center_axis',(1.,0.,0.));
#335=DIRECTION('ref_axis',(0.,1.,0.));
#336=DIRECTION('center_axis',(-1.,0.,0.));
#337=DIRECTION('ref_axis',(0.,1.,0.));
#338=DIRECTION('',(1.,0.,0.));
#339=DIRECTION('center_axis',(1.,0.,0.));
#340=DIRECTION('ref_axis',(0.,1.,0.));
#341=DIRECTION('center_axis',(1.,0.,0.));
#342=DIRECTION('ref_axis',(0.,1.,0.));
#343=DIRECTION('center_axis',(-1.,0.,0.));
#344=DIRECTION('ref_axis',(0.,-1.83697019872103E-16,-1.));
#345=DIRECTION('center_axis',(-1.,0.,0.));
#346=DIRECTION('ref_axis',(0.,-1.,1.22464679914735E-16));
#347=DIRECTION('center_axis',(-1.,0.,0.));
#348=DIRECTION('ref_axis',(0.,6.12323399573677E-17,1.));
#349=DIRECTION('center_axis',(1.,0.,0.));
#350=DIRECTION('ref_axis',(0.,6.12323399573677E-17,1.));
#351=DIRECTION('',(1.,0.,0.));
#352=DIRECTION('center_axis',(1.,0.,0.));
#353=DIRECTION('ref_axis',(0.,-1.,1.22464679914735E-16));
#354=DIRECTION('',(1.,0.,0.));
#355=DIRECTION('center_axis',(1.,0.,0.));
#356=DIRECTION('ref_axis',(0.,-1.83697019872103E-16,-1.));
#357=DIRECTION('',(1.,0.,0.));
#358=CARTESIAN_POINT('',(0.,0.,0.));
#359=CARTESIAN_POINT('Origin',(-8.,0.,0.));
#360=CARTESIAN_POINT('',(-8.,-30.,-3.60822483003176E-15));
#361=CARTESIAN_POINT('Origin',(-8.,0.,0.));
#362=CARTESIAN_POINT('',(-8.,26.2516041650898,1.2645));
#363=CARTESIAN_POINT('Origin',(-8.,26.2516041650898,-4.82234145198909E-15));
#364=CARTESIAN_POINT('',(-8.,1.2645,-26.2516041650898));
#365=CARTESIAN_POINT('Origin',(-8.,-3.21489430132606E-15,-26.2516041650898));
#366=CARTESIAN_POINT('',(-8.,-26.2516041650898,-1.2645));
#367=CARTESIAN_POINT('Origin',(-8.,-26.2516041650898,1.60744715066303E-15));
#368=CARTESIAN_POINT('',(-8.,-1.2645,26.2516041650898));
#369=CARTESIAN_POINT('Origin',(-8.,0.,26.2516041650898));
#370=CARTESIAN_POINT('Origin',(-10.,0.,26.2516041650898));
#371=CARTESIAN_POINT('',(0.,-1.2645,26.2516041650898));
#372=CARTESIAN_POINT('',(-10.,-1.2645,26.2516041650898));
#373=CARTESIAN_POINT('Origin',(0.,0.,26.2516041650898));
#374=CARTESIAN_POINT('Origin',(4.,16.2500001490116,-2.98507660029466E-15));
#375=CARTESIAN_POINT('',(0.,16.2500001490116,1.5));
#376=CARTESIAN_POINT('Origin',(0.,16.2500001490116,-2.98507660029466E-15));
#377=CARTESIAN_POINT('',(-6.,16.2500001490116,1.5));
#378=CARTESIAN_POINT('',(4.,16.2500001490116,1.5));
#379=CARTESIAN_POINT('Origin',(-6.,16.2500001490116,-2.98507660029466E-15));
#380=CARTESIAN_POINT('Origin',(-6.,16.2500001490116,-2.98507660029466E-15));
#381=CARTESIAN_POINT('Origin',(4.,-1.99005106686311E-15,-16.2500001490116));
#382=CARTESIAN_POINT('',(0.,1.2645,-16.2500001490116));
#383=CARTESIAN_POINT('Origin',(0.,-1.99005106686311E-15,-16.2500001490116));
#384=CARTESIAN_POINT('',(-6.,1.2645,-16.2500001490116));
#385=CARTESIAN_POINT('',(4.,1.2645,-16.2500001490116));
#386=CARTESIAN_POINT('Origin',(-6.,-1.99005106686311E-15,-16.2500001490116));
#387=CARTESIAN_POINT('Origin',(-6.,-1.99005106686311E-15,-16.2500001490116));
#388=CARTESIAN_POINT('Origin',(4.,-16.2500001490116,9.95025533431554E-16));
#389=CARTESIAN_POINT('',(0.,-16.2500001490116,-1.2645));
#390=CARTESIAN_POINT('Origin',(0.,-16.2500001490116,9.95025533431554E-16));
#391=CARTESIAN_POINT('',(-6.,-16.2500001490116,-1.2645));
#392=CARTESIAN_POINT('',(4.,-16.2500001490116,-1.2645));
#393=CARTESIAN_POINT('Origin',(-6.,-16.2500001490116,9.95025533431554E-16));
#394=CARTESIAN_POINT('Origin',(-6.,-16.2500001490116,9.95025533431554E-16));
#395=CARTESIAN_POINT('Origin',(4.,0.,16.2500001490116));
#396=CARTESIAN_POINT('',(0.,-1.5,16.2500001490116));
#397=CARTESIAN_POINT('Origin',(0.,0.,16.2500001490116));
#398=CARTESIAN_POINT('',(-6.,-1.5,16.2500001490116));
#399=CARTESIAN_POINT('',(4.,-1.5,16.2500001490116));
#400=CARTESIAN_POINT('Origin',(-6.,0.,16.2500001490116));
#401=CARTESIAN_POINT('Origin',(-6.,0.,16.2500001490116));
#402=CARTESIAN_POINT('Origin',(0.,0.,0.));
#403=CARTESIAN_POINT('',(0.,-30.,-3.67394039744206E-15));
#404=CARTESIAN_POINT('',(0.,-30.,3.67394039744206E-15));
#405=CARTESIAN_POINT('Origin',(0.,0.,0.));
#406=CARTESIAN_POINT('Origin',(0.,0.,0.));
#407=CARTESIAN_POINT('',(0.,26.2516041650898,1.2645));
#408=CARTESIAN_POINT('Origin',(0.,26.2516041650898,-4.82234145198909E-15));
#409=CARTESIAN_POINT('',(0.,1.2645,-26.2516041650898));
#410=CARTESIAN_POINT('Origin',(0.,-3.21489430132606E-15,-26.2516041650898));
#411=CARTESIAN_POINT('',(0.,-26.2516041650898,-1.2645));
#412=CARTESIAN_POINT('Origin',(0.,-26.2516041650898,1.60744715066303E-15));
#413=CARTESIAN_POINT('Origin',(-10.,-26.2516041650898,1.60744715066303E-15));
#414=CARTESIAN_POINT('',(-10.,-26.2516041650898,-1.2645));
#415=CARTESIAN_POINT('Origin',(-10.,-3.21489430132606E-15,-26.2516041650898));
#416=CARTESIAN_POINT('',(-10.,1.2645,-26.2516041650898));
#417=CARTESIAN_POINT('Origin',(-10.,26.2516041650898,-4.82234145198909E-15));
#418=CARTESIAN_POINT('',(-10.,26.2516041650898,1.2645));
#419=UNCERTAINTY_MEASURE_WITH_UNIT(LENGTH_MEASURE(0.01),#423,
'DISTANCE_ACCURACY_VALUE',
'Maximum model space distance between geometric entities at asserted c
onnectivities');
#420=UNCERTAINTY_MEASURE_WITH_UNIT(LENGTH_MEASURE(0.01),#423,
'DISTANCE_ACCURACY_VALUE',
'Maximum model space distance between geometric entities at asserted c
onnectivities');
#421=(
GEOMETRIC_REPRESENTATION_CONTEXT(3)
GLOBAL_UNCERTAINTY_ASSIGNED_CONTEXT((#419))
GLOBAL_UNIT_ASSIGNED_CONTEXT((#423,#425,#426))
REPRESENTATION_CONTEXT('','3D')
);
#422=(
GEOMETRIC_REPRESENTATION_CONTEXT(3)
GLOBAL_UNCERTAINTY_ASSIGNED_CONTEXT((#420))
GLOBAL_UNIT_ASSIGNED_CONTEXT((#423,#425,#426))
REPRESENTATION_CONTEXT('','3D')
);
#423=(
LENGTH_UNIT()
NAMED_UNIT(*)
SI_UNIT(.MILLI.,.METRE.)
);
#424=(
LENGTH_UNIT()
NAMED_UNIT(*)
SI_UNIT($,.METRE.)
);
#425=(
NAMED_UNIT(*)
PLANE_ANGLE_UNIT()
SI_UNIT($,.RADIAN.)
);
#426=(
NAMED_UNIT(*)
SI_UNIT($,.STERADIAN.)
SOLID_ANGLE_UNIT()
);
#427=SHAPE_DEFINITION_REPRESENTATION(#428,#429);
#428=PRODUCT_DEFINITION_SHAPE('',$,#431);
#429=SHAPE_REPRESENTATION('',(#247),#421);
#430=PRODUCT_DEFINITION_CONTEXT('part definition',#435,'design');
#431=PRODUCT_DEFINITION('base plate','base plate',#432,#430);
#432=PRODUCT_DEFINITION_FORMATION('',$,#437);
#433=PRODUCT_RELATED_PRODUCT_CATEGORY('base plate','base plate',(#437));
#434=APPLICATION_PROTOCOL_DEFINITION('international standard',
'automotive_design',2009,#435);
#435=APPLICATION_CONTEXT(
'Core Data for Automotive Mechanical Design Process');
#436=PRODUCT_CONTEXT('part definition',#435,'mechanical');
#437=PRODUCT('base plate','base plate',$,(#436));
#438=PRESENTATION_STYLE_ASSIGNMENT((#440));
#439=PRESENTATION_STYLE_ASSIGNMENT((#441));
#440=SURFACE_STYLE_USAGE(.BOTH.,#442);
#441=SURFACE_STYLE_USAGE(.BOTH.,#443);
#442=SURFACE_SIDE_STYLE('',(#444));
#443=SURFACE_SIDE_STYLE('',(#445));
#444=SURFACE_STYLE_FILL_AREA(#446);
#445=SURFACE_STYLE_FILL_AREA(#447);
#446=FILL_AREA_STYLE('Steel - Satin',(#448));
#447=FILL_AREA_STYLE('Aluminum - Satin',(#449));
#448=FILL_AREA_STYLE_COLOUR('Steel - Satin',#450);
#449=FILL_AREA_STYLE_COLOUR('Aluminum - Satin',#451);
#450=COLOUR_RGB('Steel - Satin',0.627450980392157,0.627450980392157,0.627450980392157);
#451=COLOUR_RGB('Aluminum - Satin',0.96078431372549,0.96078431372549,0.964705882352941);
ENDSEC;
END-ISO-10303-21;
