ISO-10303-21;
HEADER;
/* Generated by software containing ST-Developer
 * from STEP Tools, Inc. (www.steptools.com) 
 */

FILE_DESCRIPTION(
/* description */ (''),
/* implementation_level */ '2;1');

FILE_NAME(
/* name */ 'end plate.step',
/* time_stamp */ '2026-01-30T16:15:30+05:30',
/* author */ (''),
/* organization */ (''),
/* preprocessor_version */ 'ST-DEVELOPER v20.1',
/* originating_system */ 'Autodesk Translation Framework v14.24.0.0',
/* authorisation */ '');

FILE_SCHEMA (('AUTOMOTIVE_DESIGN { 1 0 10303 214 3 1 1 }'));
ENDSEC;

DATA;
#10=MECHANICAL_DESIGN_GEOMETRIC_PRESENTATION_REPRESENTATION('',(#13),#281);
#11=SHAPE_REPRESENTATION_RELATIONSHIP('SRR','None',#288,#12);
#12=ADVANCED_BREP_SHAPE_REPRESENTATION('',(#14),#280);
#13=STYLED_ITEM('',(#298),#14);
#14=MANIFOLD_SOLID_BREP('Body1',#157);
#15=LINE('',#255,#21);
#16=LINE('',#269,#22);
#17=LINE('',#271,#23);
#18=LINE('',#273,#24);
#19=LINE('',#275,#25);
#20=LINE('',#277,#26);
#21=VECTOR('',#209,9.525);
#22=VECTOR('',#226,1.5);
#23=VECTOR('',#229,30.);
#24=VECTOR('',#232,1.5);
#25=VECTOR('',#235,1.5);
#26=VECTOR('',#238,1.5);
#27=CYLINDRICAL_SURFACE('',#178,9.525);
#28=CYLINDRICAL_SURFACE('',#186,1.2645);
#29=CYLINDRICAL_SURFACE('',#187,30.);
#30=CYLINDRICAL_SURFACE('',#188,1.2645);
#31=CYLINDRICAL_SURFACE('',#189,1.2645);
#32=CYLINDRICAL_SURFACE('',#190,1.2645);
#33=FACE_BOUND('',#52,.T.);
#34=FACE_BOUND('',#53,.T.);
#35=FACE_BOUND('',#54,.T.);
#36=FACE_BOUND('',#55,.T.);
#37=FACE_BOUND('',#56,.T.);
#38=FACE_BOUND('',#59,.T.);
#39=FACE_BOUND('',#60,.T.);
#40=FACE_BOUND('',#61,.T.);
#41=FACE_BOUND('',#62,.T.);
#42=FACE_BOUND('',#63,.T.);
#43=FACE_OUTER_BOUND('',#51,.T.);
#44=FACE_OUTER_BOUND('',#57,.T.);
#45=FACE_OUTER_BOUND('',#58,.T.);
#46=FACE_OUTER_BOUND('',#64,.T.);
#47=FACE_OUTER_BOUND('',#65,.T.);
#48=FACE_OUTER_BOUND('',#66,.T.);
#49=FACE_OUTER_BOUND('',#67,.T.);
#50=FACE_OUTER_BOUND('',#68,.T.);
#51=EDGE_LOOP('',(#111));
#52=EDGE_LOOP('',(#112));
#53=EDGE_LOOP('',(#113));
#54=EDGE_LOOP('',(#114));
#55=EDGE_LOOP('',(#115));
#56=EDGE_LOOP('',(#116));
#57=EDGE_LOOP('',(#117,#118,#119,#120));
#58=EDGE_LOOP('',(#121));
#59=EDGE_LOOP('',(#122));
#60=EDGE_LOOP('',(#123));
#61=EDGE_LOOP('',(#124));
#62=EDGE_LOOP('',(#125));
#63=EDGE_LOOP('',(#126));
#64=EDGE_LOOP('',(#127,#128,#129,#130));
#65=EDGE_LOOP('',(#131,#132,#133,#134));
#66=EDGE_LOOP('',(#135,#136,#137,#138));
#67=EDGE_LOOP('',(#139,#140,#141,#142));
#68=EDGE_LOOP('',(#143,#144,#145,#146));
#69=CIRCLE('',#172,30.);
#70=CIRCLE('',#173,1.2645);
#71=CIRCLE('',#174,1.2645);
#72=CIRCLE('',#175,1.2645);
#73=CIRCLE('',#176,1.2645);
#74=CIRCLE('',#177,9.525);
#75=CIRCLE('',#179,9.525);
#76=CIRCLE('',#181,30.);
#77=CIRCLE('',#182,1.2645);
#78=CIRCLE('',#183,1.2645);
#79=CIRCLE('',#184,1.2645);
#80=CIRCLE('',#185,1.2645);
#81=VERTEX_POINT('',#241);
#82=VERTEX_POINT('',#243);
#83=VERTEX_POINT('',#245);
#84=VERTEX_POINT('',#247);
#85=VERTEX_POINT('',#249);
#86=VERTEX_POINT('',#251);
#87=VERTEX_POINT('',#254);
#88=VERTEX_POINT('',#258);
#89=VERTEX_POINT('',#260);
#90=VERTEX_POINT('',#262);
#91=VERTEX_POINT('',#264);
#92=VERTEX_POINT('',#266);
#93=EDGE_CURVE('',#81,#81,#69,.T.);
#94=EDGE_CURVE('',#82,#82,#70,.T.);
#95=EDGE_CURVE('',#83,#83,#71,.T.);
#96=EDGE_CURVE('',#84,#84,#72,.T.);
#97=EDGE_CURVE('',#85,#85,#73,.T.);
#98=EDGE_CURVE('',#86,#86,#74,.T.);
#99=EDGE_CURVE('',#86,#87,#15,.T.);
#100=EDGE_CURVE('',#87,#87,#75,.T.);
#101=EDGE_CURVE('',#88,#88,#76,.T.);
#102=EDGE_CURVE('',#89,#89,#77,.T.);
#103=EDGE_CURVE('',#90,#90,#78,.T.);
#104=EDGE_CURVE('',#91,#91,#79,.T.);
#105=EDGE_CURVE('',#92,#92,#80,.T.);
#106=EDGE_CURVE('',#92,#82,#16,.T.);
#107=EDGE_CURVE('',#88,#81,#17,.T.);
#108=EDGE_CURVE('',#91,#83,#18,.T.);
#109=EDGE_CURVE('',#90,#84,#19,.T.);
#110=EDGE_CURVE('',#89,#85,#20,.T.);
#111=ORIENTED_EDGE('',*,*,#93,.T.);
#112=ORIENTED_EDGE('',*,*,#94,.T.);
#113=ORIENTED_EDGE('',*,*,#95,.T.);
#114=ORIENTED_EDGE('',*,*,#96,.T.);
#115=ORIENTED_EDGE('',*,*,#97,.T.);
#116=ORIENTED_EDGE('',*,*,#98,.T.);
#117=ORIENTED_EDGE('',*,*,#98,.F.);
#118=ORIENTED_EDGE('',*,*,#99,.T.);
#119=ORIENTED_EDGE('',*,*,#100,.F.);
#120=ORIENTED_EDGE('',*,*,#99,.F.);
#121=ORIENTED_EDGE('',*,*,#101,.F.);
#122=ORIENTED_EDGE('',*,*,#100,.T.);
#123=ORIENTED_EDGE('',*,*,#102,.F.);
#124=ORIENTED_EDGE('',*,*,#103,.F.);
#125=ORIENTED_EDGE('',*,*,#104,.F.);
#126=ORIENTED_EDGE('',*,*,#105,.F.);
#127=ORIENTED_EDGE('',*,*,#105,.T.);
#128=ORIENTED_EDGE('',*,*,#106,.T.);
#129=ORIENTED_EDGE('',*,*,#94,.F.);
#130=ORIENTED_EDGE('',*,*,#106,.F.);
#131=ORIENTED_EDGE('',*,*,#101,.T.);
#132=ORIENTED_EDGE('',*,*,#107,.T.);
#133=ORIENTED_EDGE('',*,*,#93,.F.);
#134=ORIENTED_EDGE('',*,*,#107,.F.);
#135=ORIENTED_EDGE('',*,*,#104,.T.);
#136=ORIENTED_EDGE('',*,*,#108,.T.);
#137=ORIENTED_EDGE('',*,*,#95,.F.);
#138=ORIENTED_EDGE('',*,*,#108,.F.);
#139=ORIENTED_EDGE('',*,*,#103,.T.);
#140=ORIENTED_EDGE('',*,*,#109,.T.);
#141=ORIENTED_EDGE('',*,*,#96,.F.);
#142=ORIENTED_EDGE('',*,*,#109,.F.);
#143=ORIENTED_EDGE('',*,*,#102,.T.);
#144=ORIENTED_EDGE('',*,*,#110,.T.);
#145=ORIENTED_EDGE('',*,*,#97,.F.);
#146=ORIENTED_EDGE('',*,*,#110,.F.);
#147=PLANE('',#171);
#148=PLANE('',#180);
#149=ADVANCED_FACE('',(#43,#33,#34,#35,#36,#37),#147,.F.);
#150=ADVANCED_FACE('',(#44),#27,.F.);
#151=ADVANCED_FACE('',(#45,#38,#39,#40,#41,#42),#148,.T.);
#152=ADVANCED_FACE('',(#46),#28,.F.);
#153=ADVANCED_FACE('',(#47),#29,.T.);
#154=ADVANCED_FACE('',(#48),#30,.F.);
#155=ADVANCED_FACE('',(#49),#31,.F.);
#156=ADVANCED_FACE('',(#50),#32,.F.);
#157=CLOSED_SHELL('',(#149,#150,#151,#152,#153,#154,#155,#156));
#158=DERIVED_UNIT_ELEMENT(#160,1.);
#159=DERIVED_UNIT_ELEMENT(#283,-3.);
#160=(
MASS_UNIT()
NAMED_UNIT(*)
SI_UNIT(.KILO.,.GRAM.)
);
#161=DERIVED_UNIT((#158,#159));
#162=MEASURE_REPRESENTATION_ITEM('density measure',
POSITIVE_RATIO_MEASURE(7850.),#161);
#163=PROPERTY_DEFINITION_REPRESENTATION(#168,#165);
#164=PROPERTY_DEFINITION_REPRESENTATION(#169,#166);
#165=REPRESENTATION('material name',(#167),#280);
#166=REPRESENTATION('density',(#162),#280);
#167=DESCRIPTIVE_REPRESENTATION_ITEM('Steel','Steel');
#168=PROPERTY_DEFINITION('material property','material name',#290);
#169=PROPERTY_DEFINITION('material property','density of part',#290);
#170=AXIS2_PLACEMENT_3D('',#239,#191,#192);
#171=AXIS2_PLACEMENT_3D('',#240,#193,#194);
#172=AXIS2_PLACEMENT_3D('',#242,#195,#196);
#173=AXIS2_PLACEMENT_3D('',#244,#197,#198);
#174=AXIS2_PLACEMENT_3D('',#246,#199,#200);
#175=AXIS2_PLACEMENT_3D('',#248,#201,#202);
#176=AXIS2_PLACEMENT_3D('',#250,#203,#204);
#177=AXIS2_PLACEMENT_3D('',#252,#205,#206);
#178=AXIS2_PLACEMENT_3D('',#253,#207,#208);
#179=AXIS2_PLACEMENT_3D('',#256,#210,#211);
#180=AXIS2_PLACEMENT_3D('',#257,#212,#213);
#181=AXIS2_PLACEMENT_3D('',#259,#214,#215);
#182=AXIS2_PLACEMENT_3D('',#261,#216,#217);
#183=AXIS2_PLACEMENT_3D('',#263,#218,#219);
#184=AXIS2_PLACEMENT_3D('',#265,#220,#221);
#185=AXIS2_PLACEMENT_3D('',#267,#222,#223);
#186=AXIS2_PLACEMENT_3D('',#268,#224,#225);
#187=AXIS2_PLACEMENT_3D('',#270,#227,#228);
#188=AXIS2_PLACEMENT_3D('',#272,#230,#231);
#189=AXIS2_PLACEMENT_3D('',#274,#233,#234);
#190=AXIS2_PLACEMENT_3D('',#276,#236,#237);
#191=DIRECTION('axis',(0.,0.,1.));
#192=DIRECTION('refdir',(1.,0.,0.));
#193=DIRECTION('center_axis',(1.,0.,0.));
#194=DIRECTION('ref_axis',(0.,1.,0.));
#195=DIRECTION('center_axis',(-1.,0.,0.));
#196=DIRECTION('ref_axis',(0.,1.,0.));
#197=DIRECTION('center_axis',(1.,0.,0.));
#198=DIRECTION('ref_axis',(0.,1.,0.));
#199=DIRECTION('center_axis',(1.,0.,0.));
#200=DIRECTION('ref_axis',(0.,6.12323399573677E-17,1.));
#201=DIRECTION('center_axis',(1.,0.,0.));
#202=DIRECTION('ref_axis',(0.,-1.,1.22464679914735E-16));
#203=DIRECTION('center_axis',(1.,0.,0.));
#204=DIRECTION('ref_axis',(0.,-1.83697019872103E-16,-1.));
#205=DIRECTION('center_axis',(1.,0.,0.));
#206=DIRECTION('ref_axis',(0.,1.,0.));
#207=DIRECTION('center_axis',(-1.,0.,0.));
#208=DIRECTION('ref_axis',(0.,1.,0.));
#209=DIRECTION('',(1.,0.,0.));
#210=DIRECTION('center_axis',(-1.,0.,0.));
#211=DIRECTION('ref_axis',(0.,1.,0.));
#212=DIRECTION('center_axis',(1.,0.,0.));
#213=DIRECTION('ref_axis',(0.,1.,0.));
#214=DIRECTION('center_axis',(-1.,0.,0.));
#215=DIRECTION('ref_axis',(0.,1.,0.));
#216=DIRECTION('center_axis',(1.,0.,0.));
#217=DIRECTION('ref_axis',(0.,-1.83697019872103E-16,-1.));
#218=DIRECTION('center_axis',(1.,0.,0.));
#219=DIRECTION('ref_axis',(0.,-1.,1.22464679914735E-16));
#220=DIRECTION('center_axis',(1.,0.,0.));
#221=DIRECTION('ref_axis',(0.,6.12323399573677E-17,1.));
#222=DIRECTION('center_axis',(1.,0.,0.));
#223=DIRECTION('ref_axis',(0.,1.,0.));
#224=DIRECTION('center_axis',(-1.,0.,0.));
#225=DIRECTION('ref_axis',(0.,1.,0.));
#226=DIRECTION('',(-1.,0.,0.));
#227=DIRECTION('center_axis',(1.,0.,0.));
#228=DIRECTION('ref_axis',(0.,1.,0.));
#229=DIRECTION('',(-1.,0.,0.));
#230=DIRECTION('center_axis',(-1.,0.,0.));
#231=DIRECTION('ref_axis',(0.,6.12323399573677E-17,1.));
#232=DIRECTION('',(-1.,0.,0.));
#233=DIRECTION('center_axis',(-1.,0.,0.));
#234=DIRECTION('ref_axis',(0.,-1.,1.22464679914735E-16));
#235=DIRECTION('',(-1.,0.,0.));
#236=DIRECTION('center_axis',(-1.,0.,0.));
#237=DIRECTION('ref_axis',(0.,-1.83697019872103E-16,-1.));
#238=DIRECTION('',(-1.,0.,0.));
#239=CARTESIAN_POINT('',(0.,0.,0.));
#240=CARTESIAN_POINT('Origin',(146.,0.,0.));
#241=CARTESIAN_POINT('',(146.,-30.,-4.44089209850063E-15));
#242=CARTESIAN_POINT('Origin',(146.,0.,0.));
#243=CARTESIAN_POINT('',(146.,-1.2645,26.252));
#244=CARTESIAN_POINT('Origin',(146.,0.,26.252));
#245=CARTESIAN_POINT('',(146.,-26.252,-1.2645));
#246=CARTESIAN_POINT('Origin',(146.,-26.252,1.60747138856082E-15));
#247=CARTESIAN_POINT('',(146.,1.2645,-26.252));
#248=CARTESIAN_POINT('Origin',(146.,-3.21494277712163E-15,-26.252));
#249=CARTESIAN_POINT('',(146.,26.252,1.2645));
#250=CARTESIAN_POINT('Origin',(146.,26.252,-4.82241416568245E-15));
#251=CARTESIAN_POINT('',(146.,-9.525,0.));
#252=CARTESIAN_POINT('Origin',(146.,0.,0.));
#253=CARTESIAN_POINT('Origin',(151.,0.,0.));
#254=CARTESIAN_POINT('',(151.,-9.525,-1.16647607618785E-15));
#255=CARTESIAN_POINT('',(151.,-9.525,1.16647607618785E-15));
#256=CARTESIAN_POINT('Origin',(151.,0.,0.));
#257=CARTESIAN_POINT('Origin',(151.,0.,0.));
#258=CARTESIAN_POINT('',(151.,-30.,-3.67394039744206E-15));
#259=CARTESIAN_POINT('Origin',(151.,0.,0.));
#260=CARTESIAN_POINT('',(151.,26.252,1.2645));
#261=CARTESIAN_POINT('Origin',(151.,26.252,-4.82241416568245E-15));
#262=CARTESIAN_POINT('',(151.,1.2645,-26.252));
#263=CARTESIAN_POINT('Origin',(151.,-3.21494277712163E-15,-26.252));
#264=CARTESIAN_POINT('',(151.,-26.252,-1.2645));
#265=CARTESIAN_POINT('Origin',(151.,-26.252,1.60747138856082E-15));
#266=CARTESIAN_POINT('',(151.,-1.2645,26.252));
#267=CARTESIAN_POINT('Origin',(151.,0.,26.252));
#268=CARTESIAN_POINT('Origin',(156.,0.,26.252));
#269=CARTESIAN_POINT('',(156.,-1.2645,26.252));
#270=CARTESIAN_POINT('Origin',(141.,0.,0.));
#271=CARTESIAN_POINT('',(141.,-30.,-3.67394039744206E-15));
#272=CARTESIAN_POINT('Origin',(156.,-26.252,1.60747138856082E-15));
#273=CARTESIAN_POINT('',(156.,-26.252,-1.2645));
#274=CARTESIAN_POINT('Origin',(156.,-3.21494277712163E-15,-26.252));
#275=CARTESIAN_POINT('',(156.,1.2645,-26.252));
#276=CARTESIAN_POINT('Origin',(156.,26.252,-4.82241416568245E-15));
#277=CARTESIAN_POINT('',(156.,26.252,1.2645));
#278=UNCERTAINTY_MEASURE_WITH_UNIT(LENGTH_MEASURE(0.01),#282,
'DISTANCE_ACCURACY_VALUE',
'Maximum model space distance between geometric entities at asserted c
onnectivities');
#279=UNCERTAINTY_MEASURE_WITH_UNIT(LENGTH_MEASURE(0.01),#282,
'DISTANCE_ACCURACY_VALUE',
'Maximum model space distance between geometric entities at asserted c
onnectivities');
#280=(
GEOMETRIC_REPRESENTATION_CONTEXT(3)
GLOBAL_UNCERTAINTY_ASSIGNED_CONTEXT((#278))
GLOBAL_UNIT_ASSIGNED_CONTEXT((#282,#284,#285))
REPRESENTATION_CONTEXT('','3D')
);
#281=(
GEOMETRIC_REPRESENTATION_CONTEXT(3)
GLOBAL_UNCERTAINTY_ASSIGNED_CONTEXT((#279))
GLOBAL_UNIT_ASSIGNED_CONTEXT((#282,#284,#285))
REPRESENTATION_CONTEXT('','3D')
);
#282=(
LENGTH_UNIT()
NAMED_UNIT(*)
SI_UNIT(.MILLI.,.METRE.)
);
#283=(
LENGTH_UNIT()
NAMED_UNIT(*)
SI_UNIT($,.METRE.)
);
#284=(
NAMED_UNIT(*)
PLANE_ANGLE_UNIT()
SI_UNIT($,.RADIAN.)
);
#285=(
NAMED_UNIT(*)
SI_UNIT($,.STERADIAN.)
SOLID_ANGLE_UNIT()
);
#286=SHAPE_DEFINITION_REPRESENTATION(#287,#288);
#287=PRODUCT_DEFINITION_SHAPE('',$,#290);
#288=SHAPE_REPRESENTATION('',(#170),#280);
#289=PRODUCT_DEFINITION_CONTEXT('part definition',#294,'design');
#290=PRODUCT_DEFINITION('end plate','end plate',#291,#289);
#291=PRODUCT_DEFINITION_FORMATION('',$,#296);
#292=PRODUCT_RELATED_PRODUCT_CATEGORY('end plate','end plate',(#296));
#293=APPLICATION_PROTOCOL_DEFINITION('international standard',
'automotive_design',2009,#294);
#294=APPLICATION_CONTEXT(
'Core Data for Automotive Mechanical Design Process');
#295=PRODUCT_CONTEXT('part definition',#294,'mechanical');
#296=PRODUCT('end plate','end plate',$,(#295));
#297=PRESENTATION_STYLE_ASSIGNMENT((#299));
#298=PRESENTATION_STYLE_ASSIGNMENT((#300));
#299=SURFACE_STYLE_USAGE(.BOTH.,#301);
#300=SURFACE_STYLE_USAGE(.BOTH.,#302);
#301=SURFACE_SIDE_STYLE('',(#303));
#302=SURFACE_SIDE_STYLE('',(#304));
#303=SURFACE_STYLE_FILL_AREA(#305);
#304=SURFACE_STYLE_FILL_AREA(#306);
#305=FILL_AREA_STYLE('Steel - Satin',(#307));
#306=FILL_AREA_STYLE('Aluminum - Satin',(#308));
#307=FILL_AREA_STYLE_COLOUR('Steel - Satin',#309);
#308=FILL_AREA_STYLE_COLOUR('Aluminum - Satin',#310);
#309=COLOUR_RGB('Steel - Satin',0.627450980392157,0.627450980392157,0.627450980392157);
#310=COLOUR_RGB('Aluminum - Satin',0.96078431372549,0.96078431372549,0.964705882352941);
ENDSEC;
END-ISO-10303-21;
