ISO-10303-21;
HEADER;
/* Generated by software containing ST-Developer
 * from STEP Tools, Inc. (www.steptools.com) 
 */

FILE_DESCRIPTION(
/* description */ (''),
/* implementation_level */ '2;1');

FILE_NAME(
/* name */ 'vca bobbin v3.step',
/* time_stamp */ '2026-03-25T16:38:56+05:30',
/* author */ (''),
/* organization */ (''),
/* preprocessor_version */ 'ST-DEVELOPER v20.1',
/* originating_system */ 'Autodesk Translation Framework v14.24.0.0',
/* authorisation */ '');

FILE_SCHEMA (('AUTOMOTIVE_DESIGN { 1 0 10303 214 3 1 1 }'));
ENDSEC;

DATA;
#10=MECHANICAL_DESIGN_GEOMETRIC_PRESENTATION_REPRESENTATION('',(#17),#190);
#11=ITEM_DEFINED_TRANSFORMATION($,$,#110,#124);
#12=(
REPRESENTATION_RELATIONSHIP($,$,#201,#200)
REPRESENTATION_RELATIONSHIP_WITH_TRANSFORMATION(#11)
SHAPE_REPRESENTATION_RELATIONSHIP()
);
#13=CONTEXT_DEPENDENT_SHAPE_REPRESENTATION(#12,#199);
#14=NEXT_ASSEMBLY_USAGE_OCCURRENCE('Component2:1','Component2:1',
'Component2:1',#203,#204,'Component2:1');
#15=SHAPE_REPRESENTATION_RELATIONSHIP('SRR','None',#201,#16);
#16=ADVANCED_BREP_SHAPE_REPRESENTATION('',(#18),#189);
#17=STYLED_ITEM('',(#214),#18);
#18=MANIFOLD_SOLID_BREP('Body1',#96);
#19=FACE_BOUND('',#36,.T.);
#20=FACE_BOUND('',#40,.T.);
#21=PLANE('',#114);
#22=PLANE('',#115);
#23=PLANE('',#117);
#24=PLANE('',#123);
#25=FACE_OUTER_BOUND('',#32,.T.);
#26=FACE_OUTER_BOUND('',#33,.T.);
#27=FACE_OUTER_BOUND('',#34,.T.);
#28=FACE_OUTER_BOUND('',#35,.T.);
#29=FACE_OUTER_BOUND('',#37,.T.);
#30=FACE_OUTER_BOUND('',#38,.T.);
#31=FACE_OUTER_BOUND('',#39,.T.);
#32=EDGE_LOOP('',(#68,#69,#70,#71));
#33=EDGE_LOOP('',(#72));
#34=EDGE_LOOP('',(#73));
#35=EDGE_LOOP('',(#74));
#36=EDGE_LOOP('',(#75));
#37=EDGE_LOOP('',(#76,#77,#78,#79));
#38=EDGE_LOOP('',(#80,#81,#82,#83));
#39=EDGE_LOOP('',(#84));
#40=EDGE_LOOP('',(#85));
#41=LINE('',#166,#44);
#42=LINE('',#177,#45);
#43=LINE('',#181,#46);
#44=VECTOR('',#133,3.75);
#45=VECTOR('',#148,13.);
#46=VECTOR('',#153,14.);
#47=CIRCLE('',#112,3.75);
#48=CIRCLE('',#113,3.75);
#49=CIRCLE('',#116,13.);
#50=CIRCLE('',#118,14.0000002086163);
#51=CIRCLE('',#120,13.);
#52=CIRCLE('',#122,14.);
#53=VERTEX_POINT('',#163);
#54=VERTEX_POINT('',#165);
#55=VERTEX_POINT('',#170);
#56=VERTEX_POINT('',#173);
#57=VERTEX_POINT('',#176);
#58=VERTEX_POINT('',#180);
#59=EDGE_CURVE('',#53,#53,#47,.T.);
#60=EDGE_CURVE('',#53,#54,#41,.T.);
#61=EDGE_CURVE('',#54,#54,#48,.T.);
#62=EDGE_CURVE('',#55,#55,#49,.T.);
#63=EDGE_CURVE('',#56,#56,#50,.T.);
#64=EDGE_CURVE('',#55,#57,#42,.T.);
#65=EDGE_CURVE('',#57,#57,#51,.T.);
#66=EDGE_CURVE('',#56,#58,#43,.T.);
#67=EDGE_CURVE('',#58,#58,#52,.T.);
#68=ORIENTED_EDGE('',*,*,#59,.F.);
#69=ORIENTED_EDGE('',*,*,#60,.T.);
#70=ORIENTED_EDGE('',*,*,#61,.T.);
#71=ORIENTED_EDGE('',*,*,#60,.F.);
#72=ORIENTED_EDGE('',*,*,#59,.T.);
#73=ORIENTED_EDGE('',*,*,#62,.T.);
#74=ORIENTED_EDGE('',*,*,#63,.T.);
#75=ORIENTED_EDGE('',*,*,#61,.F.);
#76=ORIENTED_EDGE('',*,*,#62,.F.);
#77=ORIENTED_EDGE('',*,*,#64,.T.);
#78=ORIENTED_EDGE('',*,*,#65,.T.);
#79=ORIENTED_EDGE('',*,*,#64,.F.);
#80=ORIENTED_EDGE('',*,*,#63,.F.);
#81=ORIENTED_EDGE('',*,*,#66,.T.);
#82=ORIENTED_EDGE('',*,*,#67,.T.);
#83=ORIENTED_EDGE('',*,*,#66,.F.);
#84=ORIENTED_EDGE('',*,*,#67,.F.);
#85=ORIENTED_EDGE('',*,*,#65,.F.);
#86=CYLINDRICAL_SURFACE('',#111,3.75);
#87=CYLINDRICAL_SURFACE('',#119,13.);
#88=CYLINDRICAL_SURFACE('',#121,14.);
#89=ADVANCED_FACE('',(#25),#86,.T.);
#90=ADVANCED_FACE('',(#26),#21,.T.);
#91=ADVANCED_FACE('',(#27),#22,.F.);
#92=ADVANCED_FACE('',(#28,#19),#23,.T.);
#93=ADVANCED_FACE('',(#29),#87,.F.);
#94=ADVANCED_FACE('',(#30),#88,.T.);
#95=ADVANCED_FACE('',(#31,#20),#24,.F.);
#96=CLOSED_SHELL('',(#89,#90,#91,#92,#93,#94,#95));
#97=DERIVED_UNIT_ELEMENT(#99,1.);
#98=DERIVED_UNIT_ELEMENT(#192,-3.);
#99=(
MASS_UNIT()
NAMED_UNIT(*)
SI_UNIT(.KILO.,.GRAM.)
);
#100=DERIVED_UNIT((#97,#98));
#101=MEASURE_REPRESENTATION_ITEM('density measure',
POSITIVE_RATIO_MEASURE(2700.),#100);
#102=PROPERTY_DEFINITION_REPRESENTATION(#107,#104);
#103=PROPERTY_DEFINITION_REPRESENTATION(#108,#105);
#104=REPRESENTATION('material name',(#106),#189);
#105=REPRESENTATION('density',(#101),#189);
#106=DESCRIPTIVE_REPRESENTATION_ITEM('Aluminum','Aluminum');
#107=PROPERTY_DEFINITION('material property','material name',#204);
#108=PROPERTY_DEFINITION('material property','density of part',#204);
#109=AXIS2_PLACEMENT_3D('',#160,#125,#126);
#110=AXIS2_PLACEMENT_3D('',#161,#127,#128);
#111=AXIS2_PLACEMENT_3D('',#162,#129,#130);
#112=AXIS2_PLACEMENT_3D('',#164,#131,#132);
#113=AXIS2_PLACEMENT_3D('',#167,#134,#135);
#114=AXIS2_PLACEMENT_3D('',#168,#136,#137);
#115=AXIS2_PLACEMENT_3D('',#169,#138,#139);
#116=AXIS2_PLACEMENT_3D('',#171,#140,#141);
#117=AXIS2_PLACEMENT_3D('',#172,#142,#143);
#118=AXIS2_PLACEMENT_3D('',#174,#144,#145);
#119=AXIS2_PLACEMENT_3D('',#175,#146,#147);
#120=AXIS2_PLACEMENT_3D('',#178,#149,#150);
#121=AXIS2_PLACEMENT_3D('',#179,#151,#152);
#122=AXIS2_PLACEMENT_3D('',#182,#154,#155);
#123=AXIS2_PLACEMENT_3D('',#183,#156,#157);
#124=AXIS2_PLACEMENT_3D('',#184,#158,#159);
#125=DIRECTION('axis',(0.,0.,1.));
#126=DIRECTION('refdir',(1.,0.,0.));
#127=DIRECTION('axis',(0.,0.,1.));
#128=DIRECTION('refdir',(1.,0.,0.));
#129=DIRECTION('center_axis',(-1.,0.,0.));
#130=DIRECTION('ref_axis',(0.,1.,0.));
#131=DIRECTION('center_axis',(1.,0.,-2.22044604925031E-16));
#132=DIRECTION('ref_axis',(0.,1.,0.));
#133=DIRECTION('',(-1.,0.,0.));
#134=DIRECTION('center_axis',(1.,0.,0.));
#135=DIRECTION('ref_axis',(0.,1.,0.));
#136=DIRECTION('center_axis',(1.,0.,-2.22044604925031E-16));
#137=DIRECTION('ref_axis',(2.22044604925031E-16,0.,1.));
#138=DIRECTION('center_axis',(1.,0.,-2.22044604925031E-16));
#139=DIRECTION('ref_axis',(2.22044604925031E-16,0.,1.));
#140=DIRECTION('center_axis',(-1.,0.,2.22044604925031E-16));
#141=DIRECTION('ref_axis',(-2.22044604925031E-16,0.,-1.));
#142=DIRECTION('center_axis',(1.,0.,-2.22044604925031E-16));
#143=DIRECTION('ref_axis',(2.22044604925031E-16,0.,1.));
#144=DIRECTION('center_axis',(1.,0.,-2.22044604925031E-16));
#145=DIRECTION('ref_axis',(2.22044604925031E-16,0.,1.));
#146=DIRECTION('center_axis',(1.,0.,-2.22044604925031E-16));
#147=DIRECTION('ref_axis',(-2.22044604925031E-16,0.,-1.));
#148=DIRECTION('',(-1.,0.,2.22044604925031E-16));
#149=DIRECTION('center_axis',(-1.,0.,2.22044604925031E-16));
#150=DIRECTION('ref_axis',(-2.22044604925031E-16,0.,-1.));
#151=DIRECTION('center_axis',(1.,0.,-2.22044604925031E-16));
#152=DIRECTION('ref_axis',(-2.22044604925031E-16,0.,-1.));
#153=DIRECTION('',(-1.,0.,2.22044604925031E-16));
#154=DIRECTION('center_axis',(1.,0.,-2.22044604925031E-16));
#155=DIRECTION('ref_axis',(-2.22044604925031E-16,0.,-1.));
#156=DIRECTION('center_axis',(1.,0.,-2.22044604925031E-16));
#157=DIRECTION('ref_axis',(-2.22044604925031E-16,0.,-1.));
#158=DIRECTION('',(0.,0.,1.));
#159=DIRECTION('',(1.,0.,0.));
#160=CARTESIAN_POINT('',(0.,0.,0.));
#161=CARTESIAN_POINT('',(0.,0.,0.));
#162=CARTESIAN_POINT('Origin',(61.,0.,1.11022302462516E-15));
#163=CARTESIAN_POINT('',(61.,-3.75,6.50980474944899E-16));
#164=CARTESIAN_POINT('Origin',(61.,0.,1.11022302462516E-15));
#165=CARTESIAN_POINT('',(48.,-3.75,6.50980474944899E-16));
#166=CARTESIAN_POINT('',(61.,-3.75,1.56946557430541E-15));
#167=CARTESIAN_POINT('Origin',(48.,0.,1.11022302462516E-15));
#168=CARTESIAN_POINT('Origin',(61.,0.,-1.35447209004269E-14));
#169=CARTESIAN_POINT('Origin',(47.,0.,-1.04360964314765E-14));
#170=CARTESIAN_POINT('',(47.,-1.59204083889156E-15,13.));
#171=CARTESIAN_POINT('Origin',(47.,0.,-1.04360964314765E-14));
#172=CARTESIAN_POINT('Origin',(48.,0.,-1.06581410364015E-14));
#173=CARTESIAN_POINT('',(48.,-1.71450551880629E-15,14.));
#174=CARTESIAN_POINT('Origin',(48.,0.,-1.06581410364015E-14));
#175=CARTESIAN_POINT('Origin',(0.,0.,0.));
#176=CARTESIAN_POINT('',(2.88657986402541E-15,-1.59204083889156E-15,13.));
#177=CARTESIAN_POINT('',(2.88657986402541E-15,-1.59204083889156E-15,13.));
#178=CARTESIAN_POINT('Origin',(0.,0.,0.));
#179=CARTESIAN_POINT('Origin',(0.,0.,0.));
#180=CARTESIAN_POINT('',(3.10862446895044E-15,-1.71450551880629E-15,14.));
#181=CARTESIAN_POINT('',(3.10862446895044E-15,-1.71450551880629E-15,14.));
#182=CARTESIAN_POINT('Origin',(0.,0.,0.));
#183=CARTESIAN_POINT('Origin',(0.,0.,0.));
#184=CARTESIAN_POINT('',(0.,0.,0.));
#185=UNCERTAINTY_MEASURE_WITH_UNIT(LENGTH_MEASURE(0.01),#191,
'DISTANCE_ACCURACY_VALUE',
'Maximum model space distance between geometric entities at asserted c
onnectivities');
#186=UNCERTAINTY_MEASURE_WITH_UNIT(LENGTH_MEASURE(0.01),#191,
'DISTANCE_ACCURACY_VALUE',
'Maximum model space distance between geometric entities at asserted c
onnectivities');
#187=UNCERTAINTY_MEASURE_WITH_UNIT(LENGTH_MEASURE(0.01),#191,
'DISTANCE_ACCURACY_VALUE',
'Maximum model space distance between geometric entities at asserted c
onnectivities');
#188=(
GEOMETRIC_REPRESENTATION_CONTEXT(3)
GLOBAL_UNCERTAINTY_ASSIGNED_CONTEXT((#185))
GLOBAL_UNIT_ASSIGNED_CONTEXT((#191,#193,#194))
REPRESENTATION_CONTEXT('','3D')
);
#189=(
GEOMETRIC_REPRESENTATION_CONTEXT(3)
GLOBAL_UNCERTAINTY_ASSIGNED_CONTEXT((#186))
GLOBAL_UNIT_ASSIGNED_CONTEXT((#191,#193,#194))
REPRESENTATION_CONTEXT('','3D')
);
#190=(
GEOMETRIC_REPRESENTATION_CONTEXT(3)
GLOBAL_UNCERTAINTY_ASSIGNED_CONTEXT((#187))
GLOBAL_UNIT_ASSIGNED_CONTEXT((#191,#193,#194))
REPRESENTATION_CONTEXT('','3D')
);
#191=(
LENGTH_UNIT()
NAMED_UNIT(*)
SI_UNIT(.MILLI.,.METRE.)
);
#192=(
LENGTH_UNIT()
NAMED_UNIT(*)
SI_UNIT($,.METRE.)
);
#193=(
NAMED_UNIT(*)
PLANE_ANGLE_UNIT()
SI_UNIT($,.RADIAN.)
);
#194=(
NAMED_UNIT(*)
SI_UNIT($,.STERADIAN.)
SOLID_ANGLE_UNIT()
);
#195=SHAPE_DEFINITION_REPRESENTATION(#197,#200);
#196=SHAPE_DEFINITION_REPRESENTATION(#198,#201);
#197=PRODUCT_DEFINITION_SHAPE('',$,#203);
#198=PRODUCT_DEFINITION_SHAPE('',$,#204);
#199=PRODUCT_DEFINITION_SHAPE($,$,#14);
#200=SHAPE_REPRESENTATION('',(#109,#124),#188);
#201=SHAPE_REPRESENTATION('',(#110),#189);
#202=PRODUCT_DEFINITION_CONTEXT('part definition',#210,'design');
#203=PRODUCT_DEFINITION('vca bobbin','vca bobbin v3',#205,#202);
#204=PRODUCT_DEFINITION('Component2','Component2',#206,#202);
#205=PRODUCT_DEFINITION_FORMATION('',$,#212);
#206=PRODUCT_DEFINITION_FORMATION('',$,#213);
#207=PRODUCT_RELATED_PRODUCT_CATEGORY('vca bobbin v3','vca bobbin v3',(#212));
#208=PRODUCT_RELATED_PRODUCT_CATEGORY('Component2','Component2',(#213));
#209=APPLICATION_PROTOCOL_DEFINITION('international standard',
'automotive_design',2009,#210);
#210=APPLICATION_CONTEXT(
'Core Data for Automotive Mechanical Design Process');
#211=PRODUCT_CONTEXT('part definition',#210,'mechanical');
#212=PRODUCT('vca bobbin','vca bobbin v3',$,(#211));
#213=PRODUCT('Component2','Component2',$,(#211));
#214=PRESENTATION_STYLE_ASSIGNMENT((#215));
#215=SURFACE_STYLE_USAGE(.BOTH.,#216);
#216=SURFACE_SIDE_STYLE('',(#217));
#217=SURFACE_STYLE_FILL_AREA(#218);
#218=FILL_AREA_STYLE('Aluminum - Satin',(#219));
#219=FILL_AREA_STYLE_COLOUR('Aluminum - Satin',#220);
#220=COLOUR_RGB('Aluminum - Satin',0.96078431372549,0.96078431372549,0.964705882352941);
ENDSEC;
END-ISO-10303-21;
