ISO-10303-21;
HEADER;
/* Generated by software containing ST-Developer
 * from STEP Tools, Inc. (www.steptools.com) 
 */

FILE_DESCRIPTION(
/* description */ (''),
/* implementation_level */ '2;1');

FILE_NAME(
/* name */ 'housing.step',
/* time_stamp */ '2026-01-29T17:27:54+05:30',
/* author */ (''),
/* organization */ (''),
/* preprocessor_version */ 'ST-DEVELOPER v20.1',
/* originating_system */ 'Autodesk Translation Framework v14.24.0.0',
/* authorisation */ '');

FILE_SCHEMA (('AUTOMOTIVE_DESIGN { 1 0 10303 214 3 1 1 }'));
ENDSEC;

DATA;
#10=MECHANICAL_DESIGN_GEOMETRIC_PRESENTATION_REPRESENTATION('',(#13),#485);
#11=SHAPE_REPRESENTATION_RELATIONSHIP('SRR','None',#492,#12);
#12=ADVANCED_BREP_SHAPE_REPRESENTATION('',(#14),#484);
#13=STYLED_ITEM('',(#501),#14);
#14=MANIFOLD_SOLID_BREP('Body1',#265);
#15=FACE_BOUND('',#58,.T.);
#16=FACE_BOUND('',#59,.T.);
#17=FACE_BOUND('',#60,.T.);
#18=FACE_BOUND('',#61,.T.);
#19=FACE_BOUND('',#62,.T.);
#20=FACE_BOUND('',#66,.T.);
#21=FACE_BOUND('',#67,.T.);
#22=FACE_BOUND('',#68,.T.);
#23=FACE_BOUND('',#69,.T.);
#24=FACE_BOUND('',#70,.T.);
#25=PLANE('',#282);
#26=PLANE('',#283);
#27=PLANE('',#292);
#28=PLANE('',#293);
#29=PLANE('',#303);
#30=PLANE('',#306);
#31=PLANE('',#309);
#32=PLANE('',#312);
#33=PLANE('',#315);
#34=PLANE('',#318);
#35=FACE_OUTER_BOUND('',#55,.T.);
#36=FACE_OUTER_BOUND('',#56,.T.);
#37=FACE_OUTER_BOUND('',#57,.T.);
#38=FACE_OUTER_BOUND('',#63,.T.);
#39=FACE_OUTER_BOUND('',#64,.T.);
#40=FACE_OUTER_BOUND('',#65,.T.);
#41=FACE_OUTER_BOUND('',#71,.T.);
#42=FACE_OUTER_BOUND('',#72,.T.);
#43=FACE_OUTER_BOUND('',#73,.T.);
#44=FACE_OUTER_BOUND('',#74,.T.);
#45=FACE_OUTER_BOUND('',#75,.T.);
#46=FACE_OUTER_BOUND('',#76,.T.);
#47=FACE_OUTER_BOUND('',#77,.T.);
#48=FACE_OUTER_BOUND('',#78,.T.);
#49=FACE_OUTER_BOUND('',#79,.T.);
#50=FACE_OUTER_BOUND('',#80,.T.);
#51=FACE_OUTER_BOUND('',#81,.T.);
#52=FACE_OUTER_BOUND('',#82,.T.);
#53=FACE_OUTER_BOUND('',#83,.T.);
#54=FACE_OUTER_BOUND('',#84,.T.);
#55=EDGE_LOOP('',(#175,#176,#177,#178));
#56=EDGE_LOOP('',(#179));
#57=EDGE_LOOP('',(#180));
#58=EDGE_LOOP('',(#181));
#59=EDGE_LOOP('',(#182));
#60=EDGE_LOOP('',(#183));
#61=EDGE_LOOP('',(#184));
#62=EDGE_LOOP('',(#185));
#63=EDGE_LOOP('',(#186,#187,#188,#189));
#64=EDGE_LOOP('',(#190));
#65=EDGE_LOOP('',(#191));
#66=EDGE_LOOP('',(#192));
#67=EDGE_LOOP('',(#193));
#68=EDGE_LOOP('',(#194));
#69=EDGE_LOOP('',(#195));
#70=EDGE_LOOP('',(#196));
#71=EDGE_LOOP('',(#197,#198,#199,#200));
#72=EDGE_LOOP('',(#201,#202,#203,#204));
#73=EDGE_LOOP('',(#205,#206,#207,#208));
#74=EDGE_LOOP('',(#209));
#75=EDGE_LOOP('',(#210,#211,#212,#213));
#76=EDGE_LOOP('',(#214));
#77=EDGE_LOOP('',(#215,#216,#217,#218));
#78=EDGE_LOOP('',(#219));
#79=EDGE_LOOP('',(#220,#221,#222,#223));
#80=EDGE_LOOP('',(#224));
#81=EDGE_LOOP('',(#225,#226,#227,#228));
#82=EDGE_LOOP('',(#229));
#83=EDGE_LOOP('',(#230,#231,#232,#233));
#84=EDGE_LOOP('',(#234));
#85=LINE('',#416,#95);
#86=LINE('',#434,#96);
#87=LINE('',#449,#97);
#88=LINE('',#451,#98);
#89=LINE('',#454,#99);
#90=LINE('',#459,#100);
#91=LINE('',#464,#101);
#92=LINE('',#469,#102);
#93=LINE('',#474,#103);
#94=LINE('',#479,#104);
#95=VECTOR('',#325,1.5);
#96=VECTOR('',#346,1.5);
#97=VECTOR('',#365,22.5);
#98=VECTOR('',#368,30.);
#99=VECTOR('',#371,1.5);
#100=VECTOR('',#378,1.5);
#101=VECTOR('',#385,1.5);
#102=VECTOR('',#392,1.5);
#103=VECTOR('',#399,1.5);
#104=VECTOR('',#406,1.5);
#105=CIRCLE('',#280,1.2645);
#106=CIRCLE('',#281,1.2645);
#107=CIRCLE('',#284,30.);
#108=CIRCLE('',#285,1.2645);
#109=CIRCLE('',#286,1.2645);
#110=CIRCLE('',#287,1.2645);
#111=CIRCLE('',#288,1.2645);
#112=CIRCLE('',#289,22.5);
#113=CIRCLE('',#291,1.2645);
#114=CIRCLE('',#294,30.);
#115=CIRCLE('',#295,1.2645);
#116=CIRCLE('',#296,1.2645);
#117=CIRCLE('',#297,1.2645);
#118=CIRCLE('',#298,22.5);
#119=CIRCLE('',#302,1.2645);
#120=CIRCLE('',#305,1.2645);
#121=CIRCLE('',#308,1.2645);
#122=CIRCLE('',#311,1.2645);
#123=CIRCLE('',#314,1.2645);
#124=CIRCLE('',#317,1.2645);
#125=VERTEX_POINT('',#413);
#126=VERTEX_POINT('',#415);
#127=VERTEX_POINT('',#420);
#128=VERTEX_POINT('',#422);
#129=VERTEX_POINT('',#424);
#130=VERTEX_POINT('',#426);
#131=VERTEX_POINT('',#428);
#132=VERTEX_POINT('',#430);
#133=VERTEX_POINT('',#433);
#134=VERTEX_POINT('',#438);
#135=VERTEX_POINT('',#440);
#136=VERTEX_POINT('',#442);
#137=VERTEX_POINT('',#444);
#138=VERTEX_POINT('',#446);
#139=VERTEX_POINT('',#453);
#140=VERTEX_POINT('',#458);
#141=VERTEX_POINT('',#463);
#142=VERTEX_POINT('',#468);
#143=VERTEX_POINT('',#473);
#144=VERTEX_POINT('',#478);
#145=EDGE_CURVE('',#125,#125,#105,.F.);
#146=EDGE_CURVE('',#125,#126,#85,.T.);
#147=EDGE_CURVE('',#126,#126,#106,.T.);
#148=EDGE_CURVE('',#127,#127,#107,.T.);
#149=EDGE_CURVE('',#128,#128,#108,.T.);
#150=EDGE_CURVE('',#129,#129,#109,.T.);
#151=EDGE_CURVE('',#130,#130,#110,.T.);
#152=EDGE_CURVE('',#131,#131,#111,.T.);
#153=EDGE_CURVE('',#132,#132,#112,.T.);
#154=EDGE_CURVE('',#131,#133,#86,.T.);
#155=EDGE_CURVE('',#133,#133,#113,.T.);
#156=EDGE_CURVE('',#134,#134,#114,.T.);
#157=EDGE_CURVE('',#135,#135,#115,.F.);
#158=EDGE_CURVE('',#136,#136,#116,.F.);
#159=EDGE_CURVE('',#137,#137,#117,.F.);
#160=EDGE_CURVE('',#138,#138,#118,.T.);
#161=EDGE_CURVE('',#132,#138,#87,.T.);
#162=EDGE_CURVE('',#127,#134,#88,.T.);
#163=EDGE_CURVE('',#130,#139,#89,.T.);
#164=EDGE_CURVE('',#139,#139,#119,.T.);
#165=EDGE_CURVE('',#129,#140,#90,.T.);
#166=EDGE_CURVE('',#140,#140,#120,.T.);
#167=EDGE_CURVE('',#128,#141,#91,.T.);
#168=EDGE_CURVE('',#141,#141,#121,.T.);
#169=EDGE_CURVE('',#137,#142,#92,.T.);
#170=EDGE_CURVE('',#142,#142,#122,.T.);
#171=EDGE_CURVE('',#136,#143,#93,.T.);
#172=EDGE_CURVE('',#143,#143,#123,.T.);
#173=EDGE_CURVE('',#135,#144,#94,.T.);
#174=EDGE_CURVE('',#144,#144,#124,.T.);
#175=ORIENTED_EDGE('',*,*,#145,.F.);
#176=ORIENTED_EDGE('',*,*,#146,.T.);
#177=ORIENTED_EDGE('',*,*,#147,.T.);
#178=ORIENTED_EDGE('',*,*,#146,.F.);
#179=ORIENTED_EDGE('',*,*,#147,.F.);
#180=ORIENTED_EDGE('',*,*,#148,.T.);
#181=ORIENTED_EDGE('',*,*,#149,.T.);
#182=ORIENTED_EDGE('',*,*,#150,.T.);
#183=ORIENTED_EDGE('',*,*,#151,.T.);
#184=ORIENTED_EDGE('',*,*,#152,.T.);
#185=ORIENTED_EDGE('',*,*,#153,.T.);
#186=ORIENTED_EDGE('',*,*,#152,.F.);
#187=ORIENTED_EDGE('',*,*,#154,.T.);
#188=ORIENTED_EDGE('',*,*,#155,.T.);
#189=ORIENTED_EDGE('',*,*,#154,.F.);
#190=ORIENTED_EDGE('',*,*,#155,.F.);
#191=ORIENTED_EDGE('',*,*,#156,.F.);
#192=ORIENTED_EDGE('',*,*,#157,.T.);
#193=ORIENTED_EDGE('',*,*,#158,.T.);
#194=ORIENTED_EDGE('',*,*,#159,.T.);
#195=ORIENTED_EDGE('',*,*,#145,.T.);
#196=ORIENTED_EDGE('',*,*,#160,.F.);
#197=ORIENTED_EDGE('',*,*,#153,.F.);
#198=ORIENTED_EDGE('',*,*,#161,.T.);
#199=ORIENTED_EDGE('',*,*,#160,.T.);
#200=ORIENTED_EDGE('',*,*,#161,.F.);
#201=ORIENTED_EDGE('',*,*,#148,.F.);
#202=ORIENTED_EDGE('',*,*,#162,.T.);
#203=ORIENTED_EDGE('',*,*,#156,.T.);
#204=ORIENTED_EDGE('',*,*,#162,.F.);
#205=ORIENTED_EDGE('',*,*,#151,.F.);
#206=ORIENTED_EDGE('',*,*,#163,.T.);
#207=ORIENTED_EDGE('',*,*,#164,.T.);
#208=ORIENTED_EDGE('',*,*,#163,.F.);
#209=ORIENTED_EDGE('',*,*,#164,.F.);
#210=ORIENTED_EDGE('',*,*,#150,.F.);
#211=ORIENTED_EDGE('',*,*,#165,.T.);
#212=ORIENTED_EDGE('',*,*,#166,.T.);
#213=ORIENTED_EDGE('',*,*,#165,.F.);
#214=ORIENTED_EDGE('',*,*,#166,.F.);
#215=ORIENTED_EDGE('',*,*,#149,.F.);
#216=ORIENTED_EDGE('',*,*,#167,.T.);
#217=ORIENTED_EDGE('',*,*,#168,.T.);
#218=ORIENTED_EDGE('',*,*,#167,.F.);
#219=ORIENTED_EDGE('',*,*,#168,.F.);
#220=ORIENTED_EDGE('',*,*,#159,.F.);
#221=ORIENTED_EDGE('',*,*,#169,.T.);
#222=ORIENTED_EDGE('',*,*,#170,.T.);
#223=ORIENTED_EDGE('',*,*,#169,.F.);
#224=ORIENTED_EDGE('',*,*,#170,.F.);
#225=ORIENTED_EDGE('',*,*,#158,.F.);
#226=ORIENTED_EDGE('',*,*,#171,.T.);
#227=ORIENTED_EDGE('',*,*,#172,.T.);
#228=ORIENTED_EDGE('',*,*,#171,.F.);
#229=ORIENTED_EDGE('',*,*,#172,.F.);
#230=ORIENTED_EDGE('',*,*,#157,.F.);
#231=ORIENTED_EDGE('',*,*,#173,.T.);
#232=ORIENTED_EDGE('',*,*,#174,.T.);
#233=ORIENTED_EDGE('',*,*,#173,.F.);
#234=ORIENTED_EDGE('',*,*,#174,.F.);
#235=CYLINDRICAL_SURFACE('',#279,1.2645);
#236=CYLINDRICAL_SURFACE('',#290,1.2645);
#237=CYLINDRICAL_SURFACE('',#299,22.5);
#238=CYLINDRICAL_SURFACE('',#300,30.);
#239=CYLINDRICAL_SURFACE('',#301,1.2645);
#240=CYLINDRICAL_SURFACE('',#304,1.2645);
#241=CYLINDRICAL_SURFACE('',#307,1.2645);
#242=CYLINDRICAL_SURFACE('',#310,1.2645);
#243=CYLINDRICAL_SURFACE('',#313,1.2645);
#244=CYLINDRICAL_SURFACE('',#316,1.2645);
#245=ADVANCED_FACE('',(#35),#235,.F.);
#246=ADVANCED_FACE('',(#36),#25,.T.);
#247=ADVANCED_FACE('',(#37,#15,#16,#17,#18,#19),#26,.T.);
#248=ADVANCED_FACE('',(#38),#236,.F.);
#249=ADVANCED_FACE('',(#39),#27,.T.);
#250=ADVANCED_FACE('',(#40,#20,#21,#22,#23,#24),#28,.F.);
#251=ADVANCED_FACE('',(#41),#237,.F.);
#252=ADVANCED_FACE('',(#42),#238,.T.);
#253=ADVANCED_FACE('',(#43),#239,.F.);
#254=ADVANCED_FACE('',(#44),#29,.T.);
#255=ADVANCED_FACE('',(#45),#240,.F.);
#256=ADVANCED_FACE('',(#46),#30,.T.);
#257=ADVANCED_FACE('',(#47),#241,.F.);
#258=ADVANCED_FACE('',(#48),#31,.T.);
#259=ADVANCED_FACE('',(#49),#242,.F.);
#260=ADVANCED_FACE('',(#50),#32,.T.);
#261=ADVANCED_FACE('',(#51),#243,.F.);
#262=ADVANCED_FACE('',(#52),#33,.T.);
#263=ADVANCED_FACE('',(#53),#244,.F.);
#264=ADVANCED_FACE('',(#54),#34,.T.);
#265=CLOSED_SHELL('',(#245,#246,#247,#248,#249,#250,#251,#252,#253,#254,
#255,#256,#257,#258,#259,#260,#261,#262,#263,#264));
#266=DERIVED_UNIT_ELEMENT(#268,1.);
#267=DERIVED_UNIT_ELEMENT(#487,-3.);
#268=(
MASS_UNIT()
NAMED_UNIT(*)
SI_UNIT(.KILO.,.GRAM.)
);
#269=DERIVED_UNIT((#266,#267));
#270=MEASURE_REPRESENTATION_ITEM('density measure',
POSITIVE_RATIO_MEASURE(2700.),#269);
#271=PROPERTY_DEFINITION_REPRESENTATION(#276,#273);
#272=PROPERTY_DEFINITION_REPRESENTATION(#277,#274);
#273=REPRESENTATION('material name',(#275),#484);
#274=REPRESENTATION('density',(#270),#484);
#275=DESCRIPTIVE_REPRESENTATION_ITEM('Aluminum','Aluminum');
#276=PROPERTY_DEFINITION('material property','material name',#494);
#277=PROPERTY_DEFINITION('material property','density of part',#494);
#278=AXIS2_PLACEMENT_3D('',#411,#319,#320);
#279=AXIS2_PLACEMENT_3D('',#412,#321,#322);
#280=AXIS2_PLACEMENT_3D('',#414,#323,#324);
#281=AXIS2_PLACEMENT_3D('',#417,#326,#327);
#282=AXIS2_PLACEMENT_3D('',#418,#328,#329);
#283=AXIS2_PLACEMENT_3D('',#419,#330,#331);
#284=AXIS2_PLACEMENT_3D('',#421,#332,#333);
#285=AXIS2_PLACEMENT_3D('',#423,#334,#335);
#286=AXIS2_PLACEMENT_3D('',#425,#336,#337);
#287=AXIS2_PLACEMENT_3D('',#427,#338,#339);
#288=AXIS2_PLACEMENT_3D('',#429,#340,#341);
#289=AXIS2_PLACEMENT_3D('',#431,#342,#343);
#290=AXIS2_PLACEMENT_3D('',#432,#344,#345);
#291=AXIS2_PLACEMENT_3D('',#435,#347,#348);
#292=AXIS2_PLACEMENT_3D('',#436,#349,#350);
#293=AXIS2_PLACEMENT_3D('',#437,#351,#352);
#294=AXIS2_PLACEMENT_3D('',#439,#353,#354);
#295=AXIS2_PLACEMENT_3D('',#441,#355,#356);
#296=AXIS2_PLACEMENT_3D('',#443,#357,#358);
#297=AXIS2_PLACEMENT_3D('',#445,#359,#360);
#298=AXIS2_PLACEMENT_3D('',#447,#361,#362);
#299=AXIS2_PLACEMENT_3D('',#448,#363,#364);
#300=AXIS2_PLACEMENT_3D('',#450,#366,#367);
#301=AXIS2_PLACEMENT_3D('',#452,#369,#370);
#302=AXIS2_PLACEMENT_3D('',#455,#372,#373);
#303=AXIS2_PLACEMENT_3D('',#456,#374,#375);
#304=AXIS2_PLACEMENT_3D('',#457,#376,#377);
#305=AXIS2_PLACEMENT_3D('',#460,#379,#380);
#306=AXIS2_PLACEMENT_3D('',#461,#381,#382);
#307=AXIS2_PLACEMENT_3D('',#462,#383,#384);
#308=AXIS2_PLACEMENT_3D('',#465,#386,#387);
#309=AXIS2_PLACEMENT_3D('',#466,#388,#389);
#310=AXIS2_PLACEMENT_3D('',#467,#390,#391);
#311=AXIS2_PLACEMENT_3D('',#470,#393,#394);
#312=AXIS2_PLACEMENT_3D('',#471,#395,#396);
#313=AXIS2_PLACEMENT_3D('',#472,#397,#398);
#314=AXIS2_PLACEMENT_3D('',#475,#400,#401);
#315=AXIS2_PLACEMENT_3D('',#476,#402,#403);
#316=AXIS2_PLACEMENT_3D('',#477,#404,#405);
#317=AXIS2_PLACEMENT_3D('',#480,#407,#408);
#318=AXIS2_PLACEMENT_3D('',#481,#409,#410);
#319=DIRECTION('axis',(0.,0.,1.));
#320=DIRECTION('refdir',(1.,0.,0.));
#321=DIRECTION('center_axis',(1.,0.,0.));
#322=DIRECTION('ref_axis',(0.,-1.,0.));
#323=DIRECTION('center_axis',(-1.,0.,0.));
#324=DIRECTION('ref_axis',(0.,-1.,0.));
#325=DIRECTION('',(1.,0.,0.));
#326=DIRECTION('center_axis',(1.,0.,0.));
#327=DIRECTION('ref_axis',(0.,-1.,0.));
#328=DIRECTION('center_axis',(-1.,0.,0.));
#329=DIRECTION('ref_axis',(0.,-1.,0.));
#330=DIRECTION('center_axis',(1.,0.,0.));
#331=DIRECTION('ref_axis',(0.,1.,0.));
#332=DIRECTION('center_axis',(1.,0.,0.));
#333=DIRECTION('ref_axis',(0.,1.,0.));
#334=DIRECTION('center_axis',(-1.,0.,0.));
#335=DIRECTION('ref_axis',(0.,-1.83697019872103E-16,-1.));
#336=DIRECTION('center_axis',(-1.,0.,0.));
#337=DIRECTION('ref_axis',(0.,-1.,1.22464679914735E-16));
#338=DIRECTION('center_axis',(-1.,0.,0.));
#339=DIRECTION('ref_axis',(0.,6.12323399573677E-17,1.));
#340=DIRECTION('center_axis',(-1.,0.,0.));
#341=DIRECTION('ref_axis',(0.,1.,0.));
#342=DIRECTION('center_axis',(-1.,0.,0.));
#343=DIRECTION('ref_axis',(0.,1.,0.));
#344=DIRECTION('center_axis',(-1.,0.,0.));
#345=DIRECTION('ref_axis',(0.,1.,0.));
#346=DIRECTION('',(-1.,0.,0.));
#347=DIRECTION('center_axis',(-1.,0.,0.));
#348=DIRECTION('ref_axis',(0.,1.,0.));
#349=DIRECTION('center_axis',(1.,0.,0.));
#350=DIRECTION('ref_axis',(0.,1.,0.));
#351=DIRECTION('center_axis',(1.,0.,0.));
#352=DIRECTION('ref_axis',(0.,1.,0.));
#353=DIRECTION('center_axis',(1.,0.,0.));
#354=DIRECTION('ref_axis',(0.,1.,0.));
#355=DIRECTION('center_axis',(-1.,0.,0.));
#356=DIRECTION('ref_axis',(0.,1.83697019872103E-16,1.));
#357=DIRECTION('center_axis',(-1.,0.,0.));
#358=DIRECTION('ref_axis',(0.,1.,-1.22464679914735E-16));
#359=DIRECTION('center_axis',(-1.,0.,0.));
#360=DIRECTION('ref_axis',(0.,-6.12323399573677E-17,-1.));
#361=DIRECTION('center_axis',(-1.,0.,0.));
#362=DIRECTION('ref_axis',(0.,1.,0.));
#363=DIRECTION('center_axis',(1.,0.,0.));
#364=DIRECTION('ref_axis',(0.,1.,0.));
#365=DIRECTION('',(-1.,0.,0.));
#366=DIRECTION('center_axis',(1.,0.,0.));
#367=DIRECTION('ref_axis',(0.,1.,0.));
#368=DIRECTION('',(-1.,0.,0.));
#369=DIRECTION('center_axis',(-1.,0.,0.));
#370=DIRECTION('ref_axis',(0.,6.12323399573677E-17,1.));
#371=DIRECTION('',(-1.,0.,0.));
#372=DIRECTION('center_axis',(-1.,0.,0.));
#373=DIRECTION('ref_axis',(0.,6.12323399573677E-17,1.));
#374=DIRECTION('center_axis',(1.,0.,0.));
#375=DIRECTION('ref_axis',(0.,6.12323399573677E-17,1.));
#376=DIRECTION('center_axis',(-1.,0.,0.));
#377=DIRECTION('ref_axis',(0.,-1.,1.22464679914735E-16));
#378=DIRECTION('',(-1.,0.,0.));
#379=DIRECTION('center_axis',(-1.,0.,0.));
#380=DIRECTION('ref_axis',(0.,-1.,1.22464679914735E-16));
#381=DIRECTION('center_axis',(1.,0.,0.));
#382=DIRECTION('ref_axis',(0.,-1.,1.22464679914735E-16));
#383=DIRECTION('center_axis',(-1.,0.,0.));
#384=DIRECTION('ref_axis',(0.,-1.83697019872103E-16,-1.));
#385=DIRECTION('',(-1.,0.,0.));
#386=DIRECTION('center_axis',(-1.,0.,0.));
#387=DIRECTION('ref_axis',(0.,-1.83697019872103E-16,-1.));
#388=DIRECTION('center_axis',(1.,0.,0.));
#389=DIRECTION('ref_axis',(0.,-1.83697019872103E-16,-1.));
#390=DIRECTION('center_axis',(1.,0.,0.));
#391=DIRECTION('ref_axis',(0.,-6.12323399573677E-17,-1.));
#392=DIRECTION('',(1.,0.,0.));
#393=DIRECTION('center_axis',(1.,0.,0.));
#394=DIRECTION('ref_axis',(0.,-6.12323399573677E-17,-1.));
#395=DIRECTION('center_axis',(-1.,0.,0.));
#396=DIRECTION('ref_axis',(0.,-6.12323399573677E-17,-1.));
#397=DIRECTION('center_axis',(1.,0.,0.));
#398=DIRECTION('ref_axis',(0.,1.,-1.22464679914735E-16));
#399=DIRECTION('',(1.,0.,0.));
#400=DIRECTION('center_axis',(1.,0.,0.));
#401=DIRECTION('ref_axis',(0.,1.,-1.22464679914735E-16));
#402=DIRECTION('center_axis',(-1.,0.,0.));
#403=DIRECTION('ref_axis',(0.,1.,-1.22464679914735E-16));
#404=DIRECTION('center_axis',(1.,0.,0.));
#405=DIRECTION('ref_axis',(0.,1.83697019872103E-16,1.));
#406=DIRECTION('',(1.,0.,0.));
#407=DIRECTION('center_axis',(1.,0.,0.));
#408=DIRECTION('ref_axis',(0.,1.83697019872103E-16,1.));
#409=DIRECTION('center_axis',(-1.,0.,0.));
#410=DIRECTION('ref_axis',(0.,1.83697019872103E-16,1.));
#411=CARTESIAN_POINT('',(0.,0.,0.));
#412=CARTESIAN_POINT('Origin',(0.,1.73472347597681E-17,26.2516041650898));
#413=CARTESIAN_POINT('',(0.,1.2645,26.2516041650898));
#414=CARTESIAN_POINT('Origin',(0.,1.73472347597681E-17,26.2516041650898));
#415=CARTESIAN_POINT('',(10.,1.2645,26.2516041650898));
#416=CARTESIAN_POINT('',(0.,1.2645,26.2516041650898));
#417=CARTESIAN_POINT('Origin',(10.,1.73472347597681E-17,26.2516041650898));
#418=CARTESIAN_POINT('Origin',(10.,-1.21430643318376E-16,26.2516041650898));
#419=CARTESIAN_POINT('Origin',(166.,0.,0.));
#420=CARTESIAN_POINT('',(166.,-30.,-3.67394039744206E-15));
#421=CARTESIAN_POINT('Origin',(166.,0.,0.));
#422=CARTESIAN_POINT('',(166.,26.2520004470348,1.2645));
#423=CARTESIAN_POINT('Origin',(166.,26.2520004470348,-4.82241424780141E-15));
#424=CARTESIAN_POINT('',(166.,1.2645,-26.2520004470348));
#425=CARTESIAN_POINT('Origin',(166.,-3.21494283186761E-15,-26.2520004470348));
#426=CARTESIAN_POINT('',(166.,-26.2520004470348,-1.2645));
#427=CARTESIAN_POINT('Origin',(166.,-26.2520004470348,1.6074714159338E-15));
#428=CARTESIAN_POINT('',(166.,-1.2645,26.2520004470348));
#429=CARTESIAN_POINT('Origin',(166.,0.,26.2520004470348));
#430=CARTESIAN_POINT('',(166.,-22.5,-2.75545529808154E-15));
#431=CARTESIAN_POINT('Origin',(166.,0.,0.));
#432=CARTESIAN_POINT('Origin',(161.,0.,26.2520004470348));
#433=CARTESIAN_POINT('',(151.,-1.2645,26.2520004470348));
#434=CARTESIAN_POINT('',(161.,-1.2645,26.2520004470348));
#435=CARTESIAN_POINT('Origin',(151.,0.,26.2520004470348));
#436=CARTESIAN_POINT('Origin',(151.,0.,26.2520004470348));
#437=CARTESIAN_POINT('Origin',(0.,0.,0.));
#438=CARTESIAN_POINT('',(0.,-30.,-3.67394039744206E-15));
#439=CARTESIAN_POINT('Origin',(0.,0.,0.));
#440=CARTESIAN_POINT('',(0.,26.2864787977883,-1.4756600337911));
#441=CARTESIAN_POINT('Origin',(0.,26.2864787977883,-0.211160033791103));
#442=CARTESIAN_POINT('',(0.,-1.44078540109265,-26.4976388315794));
#443=CARTESIAN_POINT('Origin',(0.,-0.176285401092651,-26.4976388315794));
#444=CARTESIAN_POINT('',(0.,-26.4627641988809,1.22962536730155));
#445=CARTESIAN_POINT('Origin',(0.,-26.4627641988809,-0.0348746326984494));
#446=CARTESIAN_POINT('',(0.,-22.5,-2.75545529808154E-15));
#447=CARTESIAN_POINT('Origin',(0.,0.,0.));
#448=CARTESIAN_POINT('Origin',(0.,0.,0.));
#449=CARTESIAN_POINT('',(0.,-22.5,-2.75545529808154E-15));
#450=CARTESIAN_POINT('Origin',(0.,0.,0.));
#451=CARTESIAN_POINT('',(0.,-30.,-3.67394039744206E-15));
#452=CARTESIAN_POINT('Origin',(161.,-26.2520004470348,1.6074714159338E-15));
#453=CARTESIAN_POINT('',(151.,-26.2520004470348,-1.2645));
#454=CARTESIAN_POINT('',(161.,-26.2520004470348,-1.2645));
#455=CARTESIAN_POINT('Origin',(151.,-26.2520004470348,1.6074714159338E-15));
#456=CARTESIAN_POINT('Origin',(151.,-26.2520004470348,1.6074714159338E-15));
#457=CARTESIAN_POINT('Origin',(161.,-3.21494283186761E-15,-26.2520004470348));
#458=CARTESIAN_POINT('',(151.,1.2645,-26.2520004470348));
#459=CARTESIAN_POINT('',(161.,1.2645,-26.2520004470348));
#460=CARTESIAN_POINT('Origin',(151.,-3.21494283186761E-15,-26.2520004470348));
#461=CARTESIAN_POINT('Origin',(151.,-3.21494283186761E-15,-26.2520004470348));
#462=CARTESIAN_POINT('Origin',(161.,26.2520004470348,-4.82241424780141E-15));
#463=CARTESIAN_POINT('',(151.,26.2520004470348,1.2645));
#464=CARTESIAN_POINT('',(161.,26.2520004470348,1.2645));
#465=CARTESIAN_POINT('Origin',(151.,26.2520004470348,-4.82241424780141E-15));
#466=CARTESIAN_POINT('Origin',(151.,26.2520004470348,-4.82241424780141E-15));
#467=CARTESIAN_POINT('Origin',(0.,-26.4627641988809,-0.0348746326984494));
#468=CARTESIAN_POINT('',(10.,-26.4627641988809,1.22962536730155));
#469=CARTESIAN_POINT('',(0.,-26.4627641988809,1.22962536730155));
#470=CARTESIAN_POINT('Origin',(10.,-26.4627641988809,-0.0348746326984494));
#471=CARTESIAN_POINT('Origin',(10.,-26.4627641988809,-0.0348746326984495));
#472=CARTESIAN_POINT('Origin',(0.,-0.176285401092651,-26.4976388315794));
#473=CARTESIAN_POINT('',(10.,-1.44078540109265,-26.4976388315794));
#474=CARTESIAN_POINT('',(0.,-1.44078540109265,-26.4976388315794));
#475=CARTESIAN_POINT('Origin',(10.,-0.176285401092651,-26.4976388315794));
#476=CARTESIAN_POINT('Origin',(10.,-0.176285401092651,-26.4976388315794));
#477=CARTESIAN_POINT('Origin',(0.,26.2864787977883,-0.211160033791103));
#478=CARTESIAN_POINT('',(10.,26.2864787977883,-1.4756600337911));
#479=CARTESIAN_POINT('',(0.,26.2864787977883,-1.4756600337911));
#480=CARTESIAN_POINT('Origin',(10.,26.2864787977883,-0.211160033791103));
#481=CARTESIAN_POINT('Origin',(10.,26.2864787977883,-0.211160033791103));
#482=UNCERTAINTY_MEASURE_WITH_UNIT(LENGTH_MEASURE(0.01),#486,
'DISTANCE_ACCURACY_VALUE',
'Maximum model space distance between geometric entities at asserted c
onnectivities');
#483=UNCERTAINTY_MEASURE_WITH_UNIT(LENGTH_MEASURE(0.01),#486,
'DISTANCE_ACCURACY_VALUE',
'Maximum model space distance between geometric entities at asserted c
onnectivities');
#484=(
GEOMETRIC_REPRESENTATION_CONTEXT(3)
GLOBAL_UNCERTAINTY_ASSIGNED_CONTEXT((#482))
GLOBAL_UNIT_ASSIGNED_CONTEXT((#486,#488,#489))
REPRESENTATION_CONTEXT('','3D')
);
#485=(
GEOMETRIC_REPRESENTATION_CONTEXT(3)
GLOBAL_UNCERTAINTY_ASSIGNED_CONTEXT((#483))
GLOBAL_UNIT_ASSIGNED_CONTEXT((#486,#488,#489))
REPRESENTATION_CONTEXT('','3D')
);
#486=(
LENGTH_UNIT()
NAMED_UNIT(*)
SI_UNIT(.MILLI.,.METRE.)
);
#487=(
LENGTH_UNIT()
NAMED_UNIT(*)
SI_UNIT($,.METRE.)
);
#488=(
NAMED_UNIT(*)
PLANE_ANGLE_UNIT()
SI_UNIT($,.RADIAN.)
);
#489=(
NAMED_UNIT(*)
SI_UNIT($,.STERADIAN.)
SOLID_ANGLE_UNIT()
);
#490=SHAPE_DEFINITION_REPRESENTATION(#491,#492);
#491=PRODUCT_DEFINITION_SHAPE('',$,#494);
#492=SHAPE_REPRESENTATION('',(#278),#484);
#493=PRODUCT_DEFINITION_CONTEXT('part definition',#498,'design');
#494=PRODUCT_DEFINITION('housing','housing',#495,#493);
#495=PRODUCT_DEFINITION_FORMATION('',$,#500);
#496=PRODUCT_RELATED_PRODUCT_CATEGORY('housing','housing',(#500));
#497=APPLICATION_PROTOCOL_DEFINITION('international standard',
'automotive_design',2009,#498);
#498=APPLICATION_CONTEXT(
'Core Data for Automotive Mechanical Design Process');
#499=PRODUCT_CONTEXT('part definition',#498,'mechanical');
#500=PRODUCT('housing','housing',$,(#499));
#501=PRESENTATION_STYLE_ASSIGNMENT((#502));
#502=SURFACE_STYLE_USAGE(.BOTH.,#503);
#503=SURFACE_SIDE_STYLE('',(#504));
#504=SURFACE_STYLE_FILL_AREA(#505);
#505=FILL_AREA_STYLE('Aluminum - Satin',(#506));
#506=FILL_AREA_STYLE_COLOUR('Aluminum - Satin',#507);
#507=COLOUR_RGB('Aluminum - Satin',0.96078431372549,0.96078431372549,0.964705882352941);
ENDSEC;
END-ISO-10303-21;
